<svg xmlns="http://www.w3.org/2000/svg" xmlns:xlink="http://www.w3.org/1999/xlink" viewBox="0 0 467.16 561.02"><defs><style>.cls-1{fill:url(#Degradado_sin_nombre_17);}.cls-2{fill:#ed7158;}.cls-3{fill:#77569e;}.cls-4{fill:#f1916c;}.cls-5{fill:url(#Degradado_sin_nombre_17-2);}.cls-6{fill:#f1916d;}.cls-7{fill:#c9cce3;}.cls-8{fill:url(#Degradado_sin_nombre_17-3);}.cls-9{fill:#ec705a;}.cls-10{fill:url(#Degradado_sin_nombre_17-4);}.cls-11{fill:#f0906f;}.cls-12{fill:#c8cbe2;}.cls-13{fill:#ec725b;}.cls-14{fill:url(#Degradado_sin_nombre_17-5);}.cls-15{fill:#c7cadf;}.cls-16{fill:#a2c516;}.cls-17{fill:url(#Degradado_sin_nombre_17-6);}.cls-18{fill:url(#Degradado_sin_nombre_17-7);}.cls-19{fill:#ed735c;}.cls-20{fill:#f09371;}.cls-21{fill:#fff8ee;}.cls-22{fill:#c7c9e5;}.cls-23{fill:#ee9172;}.cls-24{fill:#b8cd00;}.cls-25{fill:#463383;}.cls-26{fill:#623c8f;}.cls-27{fill:#f8faf8;}.cls-28{fill:#fdf1ea;}.cls-29{fill:#453886;}.cls-30{fill:#2a265a;}.cls-31{fill:#fdfaf7;}.cls-32{fill:#fdf4e9;}.cls-33{fill:#c9cdde;}.cls-34{fill:#fff8f0;}.cls-35{fill:#342e7a;}.cls-36{fill:#402860;}.cls-37{fill:#f9f0f7;}.cls-38{fill:#fdf6ef;}.cls-39{fill:#29173b;}.cls-40{fill:#dd9774;}.cls-41{fill:#fdf0e7;}.cls-42{fill:#fad4c2;}.cls-43{fill:#fdecdd;}.cls-44{fill:#ea9895;}.cls-45{fill:#fdf2ed;}.cls-46{fill:#e6968a;}.cls-47{fill:#de8d73;}.cls-48{fill:#d3a3ca;}.cls-49{fill:#b08abb;}.cls-50{fill:#dc8f73;}.cls-51{fill:#c8c7d7;}.cls-52{fill:#4d3785;}.cls-53{fill:#ed7763;}.cls-54{fill:#ed755b;}.cls-55{fill:#f19064;}.cls-56{fill:#3a286e;}.cls-57{fill:#ed725b;}.cls-58{fill:#fafafd;}.cls-59{fill:#aea8d1;}.cls-60{fill:#cfcae6;}.cls-61{fill:#c9c7e4;}.cls-62{fill:#b1acd3;}.cls-63{fill:#d6d4eb;}.cls-64{fill:#c2bfe0;}.cls-65{fill:#d2cee8;}.cls-66{fill:#aaa3ce;}.cls-67{fill:#ebeaf6;}.cls-68{fill:#d7d8ed;}.cls-69{fill:#dfdef0;}.cls-70{fill:#dad8ed;}.cls-71{fill:#b3aed4;}.cls-72{fill:#c2c1e1;}.cls-73{fill:#cecbe6;}.cls-74{fill:#bfbbda;}.cls-75{fill:#eae9f5;}.cls-76{fill:#cbc7e4;}.cls-77{fill:#e3e1f1;}.cls-78{fill:#bebcde;}.cls-79{fill:#bdb7db;}.cls-80{fill:#d8d7ed;}.cls-81{fill:#d2d0e9;}.cls-82{fill:#2e2d7c;}.cls-83{fill:#c2bdde;}.cls-84{fill:#e6e5f3;}.cls-85{fill:#bfbbde;}.cls-86{fill:#c9c6e4;}.cls-87{fill:#2d2d78;}.cls-88{fill:#28214f;}.cls-89{fill:#ea8f6a;}.cls-90{fill:#251b43;}.cls-91{fill:#2f2a62;}.cls-92{fill:#ac6e77;}.cls-93{fill:#e37670;}.cls-94{fill:#2c2a69;}.cls-95{fill:#291f4c;}.cls-96{fill:#23234c;}.cls-97{fill:#331d49;}.cls-98{fill:#272757;}.cls-99{fill:#eea06a;}.cls-100{fill:#2d2968;}.cls-101{fill:#babbda;}.cls-102{fill:#272654;}.cls-103{fill:#e5958b;}.cls-104{fill:#d97482;}.cls-105{fill:#663562;}.cls-106{fill:#f09e8e;}.cls-107{fill:#b1695f;}.cls-108{fill:#dedbee;}.cls-109{fill:#985365;}.cls-110{fill:#d6a3cb;}.cls-111{fill:#ed7461;}.cls-112{fill:#eae33f;}.cls-113{fill:#ede763;}.cls-114{fill:#f7ee89;}.cls-115{fill:#9f7cb0;}.cls-116{fill:#472a6d;}.cls-117{fill:#4d2d66;}.cls-118{fill:#3f3186;}.cls-119{fill:#c692bf;}.cls-120{fill:#c892c1;}.cls-121{fill:#f19286;}.cls-122{fill:#ba85ac;}.cls-123{fill:#dca4c9;}.cls-124{fill:#b2add4;}.cls-125{fill:#c1bfe0;}.cls-126{fill:#e5e4f3;}.cls-127{fill:#d5d4eb;}.cls-128{fill:#c6c2e1;}.cls-129{fill:#cfcde7;}.cls-130{fill:#d4d3eb;}.cls-131{fill:#a29cc6;}.cls-132{fill:#cbc9e5;}.cls-133{fill:#d5d3ea;}.cls-134{fill:#c2bede;}.cls-135{fill:#e0ddef;}.cls-136{fill:#d0cde7;}.cls-137{fill:#bcb8db;}.cls-138{fill:#ddd9ed;}.cls-139{fill:#e2e0f1;}.cls-140{fill:#c7c4e3;}.cls-141{fill:#d7d6ec;}.cls-142{fill:#edeaf5;}.cls-143{fill:#342b63;}.cls-144{fill:#f6ed85;}.cls-145{fill:#f8dc31;}.cls-146{fill:#e9e121;}.cls-147{fill:#ed7560;}.cls-148{fill:#f9f19d;}.cls-149{fill:url(#Degradado_sin_nombre_17-8);}</style><linearGradient id="Degradado_sin_nombre_17" x1="173.3" y1="167.85" x2="323.48" y2="167.85" gradientUnits="userSpaceOnUse"><stop offset="0" stop-color="#9fff02"/><stop offset="0.01" stop-color="#9fff02"/><stop offset="0.95" stop-color="#9eff00"/><stop offset="1" stop-color="#96de1f"/></linearGradient><linearGradient id="Degradado_sin_nombre_17-2" x1="294.49" y1="152.19" x2="379.7" y2="152.19" xlink:href="#Degradado_sin_nombre_17"/><linearGradient id="Degradado_sin_nombre_17-3" x1="163.99" y1="222.01" x2="202.78" y2="222.01" xlink:href="#Degradado_sin_nombre_17"/><linearGradient id="Degradado_sin_nombre_17-4" x1="133.02" y1="368.37" x2="194.65" y2="368.37" xlink:href="#Degradado_sin_nombre_17"/><linearGradient id="Degradado_sin_nombre_17-5" x1="207.63" y1="364.02" x2="250.27" y2="364.02" xlink:href="#Degradado_sin_nombre_17"/><linearGradient id="Degradado_sin_nombre_17-6" x1="212.99" y1="352.38" x2="266.03" y2="352.38" xlink:href="#Degradado_sin_nombre_17"/><linearGradient id="Degradado_sin_nombre_17-7" x1="359.56" y1="147.09" x2="383.07" y2="147.09" xlink:href="#Degradado_sin_nombre_17"/><linearGradient id="Degradado_sin_nombre_17-8" x1="161.68" y1="185.16" x2="382.34" y2="185.16" xlink:href="#Degradado_sin_nombre_17"/></defs><g id="Capa_2" data-name="Capa 2"><g id="Capa_1-2" data-name="Capa 1"><path class="cls-1" d="M277.13,99.26l10.67,8c1.59,3.8,9.06,3.42,7,9.82.25-.3.31-.7.65-1,2.34-1.86,4.17.14,6.18.79,7.59,4.45,15,9.08,21.4,15.23.07,6.84.76,13.68.27,20.52-.32,4.35-3.43,6.35-6.95,5.07-7.3-2.67-14.69.76-21.87-1.21L286.78,158c-3.77,1.52-5.46,4.6-5.85,8.38-1.18,11.74-5.31,22.15-13.5,30.81-.62.66.2-.13-.4.54-10.14,11.34-17.11,23.94-22.34,39.32-1.36,4-3.71,7.7-6,11.35-4.86,4.92-4.62,11.52-5.8,17.66-1.72,2.18-3.72,3-6.24,1.28a3.75,3.75,0,0,1-.88-1.74,4.49,4.49,0,0,1,.38-1.88c3.52-4.53.1-8.22-1.47-12.13a3.64,3.64,0,0,1,.3-1.84c1.73-2.61,4.48-3.68,7.21-4.81,1.06-.44,2.18-1.08,1.85-2.44a2.3,2.3,0,0,0-3.23-1.57c-4.29,1.46-8.68,2.52-13,3.77a18.78,18.78,0,0,1-4.1.51c-3.61,0-7.23.26-10.82-.39-2-.52-4-.78-5.91-1.48-6.59-2.41-8.29-5.76-7.71-12.79.67-8.1.26-16.26.17-24.4,0-.91,0-2.14-.62-2.58-4.6-3.16-2.68-7.37-2-11.39,2.17-6,7.66-9,11.89-13.2,6.41-.54,9.08-4.82,10.42-10.42a12.84,12.84,0,0,1,3.15-4.74c5-4.78,9.83-9.65,13.17-14.65a23.48,23.48,0,0,1-10.89,7.17c-4.59-.55-6.56,1.49-6,6.05a5.61,5.61,0,0,1-4.17,3.64c-6.38-.68-7.27,5.18-10.21,8.61-7,3.21-9.34,2.53-10.89-3.24a10.23,10.23,0,0,1,.43-1.88c.87-2.4,1.69-4.86,5.81-5.71-3.26-.2-4.4,1.17-5.65,2.3-1.4,1.72-2.59,3.65-4.46,4.89-2.07,1.38-4.28,2.69-6.08-.45,2.74-3.79,6.19-7,8.94-10.79,5.54-7.63,5.11-9.38-3.46-13.28-1.29-.91-3.13-1.45-2.51-3.67,7-8.94,12.57-18.94,20.61-27.08,6.54-3.33,12.94-5.77,20.29-1.55,5.08,2.91,10.53.51,15.72-.78,5-1.24,10.05-2.48,14-6.16,1.72-1.51,3.32-3.15,5-4.69a68.85,68.85,0,0,0,23.26-29.67c.77-1.84,1.29-3.84,3-5.14a3,3,0,0,1,2.85.19c1.12,5.38-2.33,9.41-4.11,13.93-.66,1.1-1.35,2.18-2,3.26-3.62,5.09-7.15,10.26-11.79,14.87,5.31,1.84,8.15-2.56,12.06-3.6C276.58,96.78,276.09,98.56,277.13,99.26Z"/><path class="cls-2" d="M133,356.12l-6.63-4.22c-6.56-4.44-9.22-10.54-8.52-18.45.41-4.67,0-9.41,1.56-13.95l0,0c.69-3.87,1.36-7.76,4-10.93,4.54-6.77,10.17-12.82,13.49-20.4,2.63-1.87,4.31.42,6.29,1.41a16.45,16.45,0,0,0,9.88,2.28c3.29.27,3.94-1.63,4-4.44,0-3.14-1.35-4.32-4.36-3.93-4.36-.92-6.81-3.5-7-8,.79-4.77-.15-9.64.83-14.41a8.18,8.18,0,0,1,5.83-5.55c3.23-.4,6.48-.9,9.42,1.15,3.26,6.6.47,13.78,1.93,20.55.84,2.86.83,6,2.8,8.52,2.14,3.47,5.37,5.12,9.31,5.59,3.21.92,6.56.25,9.8.85S192,294,192.89,298c.6,2.61,2.45,3.63,5,3.31,3.32-.42,1.89-2.62,1.68-4.52-.38-3.42,2.5-2.94,4.5-3.47,2.71,0,5.43-.35,8,.7,3.4,2.42-2,4.64-.17,7,1.6-5.79,4.9-7.05,9.93-3.66,2.38,1.61,4.25,4.14,7.5,4.08,2.21,0,5.67,1.9,4.7-3.24-.4-2.09,1.7-2.94,3.53-3.35,2-.45,3.83-.66,5.32,1.52s2,5,4.31,6.71c5.95,12.14,11.49,24.43,13.51,38-1.21,8.67-7,13.64-16.86,14.12s-19.45-.37-29.15.47a28.58,28.58,0,0,1-6,.8,5.09,5.09,0,0,0-2.55,1l-6.75,4.09a10.87,10.87,0,0,1-5.84,3c-6.74,3-13.35,2.18-19.48-1.39-8.71-5.08-17.63-7.59-27.85-5.66C142,358.26,137.41,357,133,356.12Z"/><path class="cls-3" d="M43.62,19.08a25.26,25.26,0,0,1,12.66-3.66,34.08,34.08,0,0,0,12.21.07c9.81.72,17.8,5.17,24.66,11.92,4.07,6.16,1.47,13.44,3.31,20.05.65,2.32-2.2,4.12-4.58,5.12-1.67,1-4.09,1.44-3,4.32.68,1.39,2.16,1.9,3.21,2.87.63,1.2,1,2.66,2.89,2.45A8,8,0,0,1,99.05,64c2.33,4.51-.65,6.08-4.12,7.39a4,4,0,0,1-1.71.1c-3.65-1.17.5,2.45-1.43,2.37-2.94,2.82-6.23,2.31-9.13.36-2.62-1.76-2.2-4.54-1-7.15,1.31-1.64,2.61-3.28-.94-3.76a4.76,4.76,0,0,1-2-1.95,9,9,0,0,1-.57-4.75,8.23,8.23,0,0,1,.52-1.82A7.65,7.65,0,0,1,80.3,52.7c1.43-1.12,1-2.15-.18-3.16-.44-.41-.83-.84-1.23-1.29-.75-4.63-7.92-4.46-7.7-10.08,0-.54-3.24-.65-5-.62-4,.08-4.67-2.06-3.75-5.27.8-2.79,2.09-5.48.92-9.58-1.79,3.76-1.82,7.53-4.81,9.57-.71,2.21,1.07,3.31,2.08,4.75-1,4.52-4.7,3.33-7.7,3.67a3.58,3.58,0,0,1-2.59-1c-1.22-1.92.38-3.71.06-5.88-.44,2.09-1.85,2.9-3.63,3.25-1.22.22-2.46.32-3.68.47-3.24,1.84-8.66,2.11-5.9,8.2a29.49,29.49,0,0,1,3,1.87c1.67,2.65,4.15,5.17,1.43,8.54a3.3,3.3,0,0,1-1.74.62c-1.28-1.55-2.75-1.61-4.36-.51-1.29-1.14-2.32-2.73-4.36-2.5-1.89.69-.85,2.87-2,3.93-2.57,1.47-4.71,3.18-3.75,6.63A3.19,3.19,0,0,1,24.8,66c-1.09,1.38-3.47,0-4.23,2a5.86,5.86,0,0,0,2,3.28c1.19.81,2.61,1.17,3.8,2A9.81,9.81,0,0,0,31.75,76a3.63,3.63,0,0,1,1.76,2c.52,3.53-2.2,6.12-2.72,9.34-.2,1.71,1,2.48,2.21,3.27,1.44,1,1.65,3,3.43,3.66s3.47.25,5.12.88A6,6,0,0,1,44,98.84c.41,1.43,1.27,2.67,1.76,4.06,1,2.3,3.19,2.89,5.21,3.7,1.56.09,2.34-.94,3-2.12.83-1.45,1.11-3.32,3-4,1.21,1,2.49-.41,3.72.09a5.71,5.71,0,0,1,2.93,4.65c.06,2.78.87-.31,1.13.19,3.66-1.83,2.31-3.88.25-5.95-1-2.24-3.65-4-1.9-7a6,6,0,0,1,3.77-1.33,7.42,7.42,0,0,1,3.9.78,3.51,3.51,0,0,1,1.07,1.51c.28.66.11,2.05,1,1.76.63-.2-.23-1.42-.46-2.19a4.14,4.14,0,0,1,.45-3.65A4.94,4.94,0,0,1,74.19,88a7.28,7.28,0,0,1,2.85-.8,10,10,0,0,1,3.85.42,3,3,0,0,1,1.57,1.15c.47.88.48,2.51,2.09,1,1.31-.07,2.49,4.09,3.84.06a7.73,7.73,0,0,1,1.85-2.95c1.71-1.13,3.72-1.85,5-3.54,9.57-3.34,7.61-10.93,6.17-17.82-.75-3.62.59-7.39-1.89-11-1.33-1.94,1-5.11,3-7s4-1.37,5.74.78c1.13,1.41,1.73-.74,2.72-.53,5.62,7.52,8.54,16.2,10.79,25.14,2.82,11.14,6.46,22,10.25,32.86,2.2,6.3,6.95,10.57,10.86,15.54,1.19,3.68-1.83,5.3-3.7,7.48a24.9,24.9,0,0,1-3.13,2.36c-2.74,1.89-5.67,3.17-9.11,2.73L114.8,131c-5.35-1.79-10.77-.86-16.18-.43-20.39,1.23-40.83,3.34-60.42-5.15-16.69-7.23-29.7-17.8-34.29-36.25a55.7,55.7,0,0,1-.84-7.34,10,10,0,0,0,.07-6.75C5.3,50.26,18.8,33,39.84,20.79,41.5,21.1,42.86,20.72,43.62,19.08Z"/><path class="cls-4" d="M273.23,523.11c-2.82-12.49-5.79-24.94-11.1-36.68-1.82-2.91-2.89-6.17-4.37-9.25a8.66,8.66,0,0,1,0-1.25c-1.91-6.52-7-11.36-9.11-17.88-3.36-10.11-5.6-20.25-4.92-30.93,1.06-5.24.57-10.52.35-15.78-.59-12-9.42-20.45-13.77-30.85-.68-1.63-3.08-1.7-4.34-3a4.29,4.29,0,0,1-1.62-2.32c-.22-3.44,2.64-3.42,4.75-4.62,5.15-2.94,11.74-3.42,15.44-8.87,4.93-4.86,12-5.45,17.71-8.78,1.61-.95,2.86.5,3.82,1.79,9,17.61,16.26,35.64,15,56.05-.42,6.8,1.24,13.61,3.4,19.91,7,20.28,8.48,41.48,11.15,62.44,1.34,10.55,2.94,20.84,7,30.69,0,2.82-2.39,3.47-4.2,4.67-3.79,1.6-7.54,3.44-11.86,2.83a7.55,7.55,0,0,1-1.73-.6c-2.1-1.54-4.12-3.23-6.72-3.95C276.24,525.81,274.29,525.06,273.23,523.11Z"/><path class="cls-4" d="M101.3,479.52l-1.14,1.37c-4.33,5.65-9.06,11-13.59,16.43-4,4.31-6.1,9.59-8,15-2.12,3.4-5.89,3.69-9.18,4.9a7.06,7.06,0,0,1-2.82.08c-3.58-.62-6.5-2.92-10-3.85A8.64,8.64,0,0,1,54,513a6.75,6.75,0,0,1-2.13-1.66c-.67-1-1.49-2-.56-3.26q2.14-4.5,4.28-9c4.67-7.48,7.91-15.73,12.36-23.32,7.39-15.45,14.67-30.9,25.44-44.48,7.8-9.84,16.38-18.58,27.31-24.86,1.8-1.45,3.81-2.66,5.24-4.53,6.9-8.28,11-17.92,13.84-28.18.44-4.15,2.49-5.39,6.79-5.09,11.42.79,22.06,4.55,32.88,7.68,2.75.79,5.09,2.24,3.84,5.85-7,14.69-11.07,31.37-26.49,40.38-7.24,4.24-14,9-19.58,15.19-2.32,2.74-5.23,5-7,8.17l-1.43,2.56c-2.93,3-4.4,7.31-8.35,9.4L118,461a7.36,7.36,0,0,1-3.79,3.72c-2.72,1.08-4.38,3.24-5.76,5.68a3.44,3.44,0,0,1-.12,1.11C106.51,474.6,103.66,476.85,101.3,479.52Z"/><path class="cls-3" d="M278.48,68.81a67.71,67.71,0,0,1-25.91,34.91c-1.88.61-3.26,2.22-5.23,2.65-5.35,2.26-10.51,5.21-16.4,5.79-2.63.25-7.08,3.54-6.81-3.28.07-1.8-2.6-1-4-1.5-6.28-2.11-7.67-6.62-3.35-11.63,1.63-1.88,2.73-4.1,4.33-6,6-11.63,13.25-22.7,17.26-35.32,3.07-4.56,3.5-9.88,4.39-15.07,0-2.38-.08-4.77,1.24-6.91,2.15-.7.32-2.64,1.17-3.74.94-2.17,1.74-4.34.68-6.7.8-10.19,4.53-18.14,15.59-20.55,3.25-1.2,6.73.14,10-.89,4.68.45,6.56,4,8.31,7.61.95,2,.08,3.72-.64,5.49-1.32,2.43-4.71,4-3.3,7.58a9.94,9.94,0,0,1,.62,1.76c2.26,8.13,3.85,16.41,5.36,24.7a9.1,9.1,0,0,1,0,2c-.82,4.69-.36,9.39-.15,14.1C281.83,66.29,278.93,66.76,278.48,68.81Z"/><path class="cls-3" d="M52.73,510.71l1.39,1.57c1.76,1.29,4,2.1,4.61,4.57.7,2.86,2.54,1.69,4.19,1.14,3-.73,6.15.31,9-1.07a49.35,49.35,0,0,0,4.85-2.21,1.53,1.53,0,0,1,1.64.19c1.56,3.84,6.17,5.28,7.38,9.4a50.89,50.89,0,0,0,8.07,8.2c3.83,4.16,9.32,6.07,13.21,10.39,6.7,7.46,7,7.17-1.35,13.11-6.81.24-13.7,1.62-20.28-1.36-1.32-3.24,1.92-1.44,2.7-2.43A7.36,7.36,0,0,0,83.3,554c-11.51-.11-21.95-5.21-33.07-7.15-5-1.41-9.81-3.19-13.06-7.62a4.92,4.92,0,0,1-.18-1.91c.37-2,3.3-3.82.63-6.18a6.53,6.53,0,0,1-1.48-2.19,1.76,1.76,0,0,1,.07-1.68c1.68-6.4,6.51-11,9.69-16.47a2,2,0,0,1,2.44.94c1.15,1.58.93,3.75,2.65,6,.45-2.2-.9-3.69-.31-5.14A3,3,0,0,1,52.73,510.71Z"/><path class="cls-5" d="M294.49,156.55c6.61.82,12.66-5.36,19.84-.79,4.52,2.88,7.06.48,7.4-5.21.37-6.13-2.14-12.48,1.31-18.38,2.84,1.47,6.31,2,7.95,5.28-.45,1-2.73.57-2.18,1.52s2.43.34,3.71,0c1.77,1,4.08.78,5.47,2.57,6.82,4.34,13.81.85,20.73.46,1.93,1.16,5.28,1.74,6,2.5,4.7,5.14,14.4,5.17,15,14.39a4.66,4.66,0,0,1-.91,1.68c-5.56,2.49-11.1,5-16.7,7.44-14.59,6.26-29,5.37-43.19-1.37A243.24,243.24,0,0,0,294.49,156.55Z"/><path class="cls-6" d="M456.21,129.57c-8.66,5.48-18.72,3-28,4.92a77,77,0,0,0-26.43,11c-3,3.36-8,4.08-10.59,8-3.27.86-5.14,5-9.24,3.91-3.21-1.39-4.69-4-4.88-7.34a34.56,34.56,0,0,0-1.53-9.85c-1.12-3.09.57-4.5,3.15-5.41l35.44-16.09c4.35-3,8.66-6.16,13.56-8.31h0a4.22,4.22,0,0,1,3.87-.59c1.62,1.08,2,3,2.73,4.54,4.92,9.95,10.1,12.44,20.9,10a5,5,0,0,1,3.28.29c1.42,1.11.84,2.36.25,3.61C458.07,129,457.39,129.76,456.21,129.57Z"/><path class="cls-3" d="M311,526.77l1.26,1.66c1.63,2-3.09,5.54,1.47,6.74,2.88.76,3.55,3.12,4.6,5.36,1.41-3.66-7.06-5-2-9.37,7,4.66,13.75,9.72,21.89,12.31.78,1.75,2.41,1.18,3.76,1.39,2.82.47,5.58,1.54,5.85,4.63.3,3.48-2.8,4.92-5.43,6.16-2.21,1.05-4.6,1.94-7.19,1.41-1.61-1.29-3.63-.15-5.31-.88-4.34-3.53-8.59.06-12.91.26-6.37,0-12.73,0-19.09-.05a267.25,267.25,0,0,0-28.16-.46l-.55,0-.53-.16c-1.06-1.12-2.1-2.25-2.23-3.9a7.72,7.72,0,0,1,.1-1.8,10.83,10.83,0,0,0-.24-6.91,7.61,7.61,0,0,1-.19-2.73c.25-1.21.68-2.28,2-2.69,2,.22,4.39-1.86,5.74,1.77,1,2.65,2.39-.5,3.69-.47a3.71,3.71,0,0,1,1.83.33c4.9,1.4,10,1.65,14.36,5.23,2.61,2.16,9-3.18,9.84-8.53C304.27,531.34,306.24,528.08,311,526.77Z"/><path class="cls-7" d="M268.55,537.75c-.45,1-.9,2.06-1.36,3.09-.67,3.63.29,7.25.06,10.87.47,1.37.94,2.73,1.4,4.1-15.4-.94-30.25-3.95-43.85-11.69-2.52-1.43-4.8-3.37-4.39-6.23s2.93-4.33,5.65-5.27c14.28-4.92,29.08-5.56,44-5.4C272.89,531.2,270.87,534.5,268.55,537.75Z"/><path class="cls-8" d="M187.15,191.75c2.48.42,5.08,1,1.79,3.84-2.12,1.86-4.8,3.14.22,4.54,3.13.87,2.23,3.7,2.05,5.72-.86,10,1.94,20.06-1.35,30.06-.35,1.09,4.49,5,8,6,1.47.41,3.22-.13,4.28,1.46a2.19,2.19,0,0,1,.61,1.76,3.59,3.59,0,0,1-2.87,2.29c-2.72.47-5.4,1-7.18,3.46a7.3,7.3,0,0,1-1.41,1.25,7.11,7.11,0,0,1-1.81.59,7.29,7.29,0,0,1-2.9-.2,5.16,5.16,0,0,1-1.67-1c-1.38-1.53-1.94-3.22-1-5.18-.18.91.09-1.21.53-.44.12.21.74-.18.76-.56-2.3,0-5.05-2.26-6.59,1.38-2.4.9-4.5.89-5.76-1.81a6.18,6.18,0,0,1-.08-1.92c1-3.86.3-7.83.79-11.73.11-.89-.11-1.54-.14-.64,0,.1-.34.18-.56.31-2.64,1.41-5,3.31-8.23,3.23l-.66-.65a54.16,54.16,0,0,1,5.42-20.34c4.56,1.24,6.31-1.15,6.5-5.23.21-4.56.84-9,3.34-12.94C181.49,193,183.3,190,187.15,191.75Z"/><path class="cls-6" d="M275.47,81.75l5.46-13.47a3.67,3.67,0,0,1,2.65-2.61c3.62-.76,7.26-1.49,10.88-2.27l1.67-.75a23.48,23.48,0,0,0,9.37-9.9,8.27,8.27,0,0,1,1-1.53c1.84-1.22,2.56-4.34,5.7-3.41-1.07,15.75-7.4,29.56-16,42.46a17.57,17.57,0,0,1-8.46,6.54,27.11,27.11,0,0,1-12.35-.08c-3.87,4.8-8.81,6.5-15.61,4.86l14.32-17.13C278.33,85.4,275.1,82.69,275.47,81.75Z"/><path class="cls-9" d="M292.15,10.58c9.5,1.93,21.45,14.24,21.05,21.69-.4,1.76-1.79,2.76-3,3.9a18,18,0,0,1-2.79,2c-.75.47-1.52.91-2.28,1.36-1.88,1.09-3.6,2.44-5.5,3.52-.39.25-.78.47-1.19.68-14.81,7.59-16.41,6.82-19.54-9.47a9.18,9.18,0,0,0-1-3.24c-3.1-4.89-1.1-8,3.41-10.34,2.4-1.26,4.83-2.56,6.22-5.08C289.05,13.87,289.9,11.58,292.15,10.58Z"/><path class="cls-10" d="M183.32,382.13c-.3-1.57-.64-3.35-2.36-3.77-12.35-3-24.37-7.42-37.18-8.45-3-.25-2.31,2.89-4,3.78a24.16,24.16,0,0,1,.1-3.3c1.85-10.87,1.86-10.87-6.89-14.27,5.84-.15,11.63,0,17.5-1.08a27.89,27.89,0,0,1,20.64,4.5c7.17,4.77,14.85,6.26,23.17,3.64a1.56,1.56,0,0,1-.52,2.36Q188.58,373.84,183.32,382.13Z"/><path class="cls-11" d="M127.1,133.59c2.52-1.81,6.1-1.53,8.23-4.13,3.39,1.44,7.42.73,10.51,3.1.58,0,.61,1.16,1.44.68a5.07,5.07,0,0,1-1.42-1.46c-.45-3.38,2.26-4.61,4.25-6.33,10.39-3.57,19.47,2.85,22.33,15.77-1.21,1.79-2.93,1.71-4.74,1.3-2.66-1.44-3.68-4.47-6-6.26a4.26,4.26,0,0,0-2.85-1.49c-1,0-2,.36-.27,1.22,3.7.7,5.18,3.81,7.14,6.4.24,6.32-5.51,8.63-8.56,12.75-9.6,2.14-16.08-1.65-19.94-10.46a8.79,8.79,0,0,0-6.29-5.51C128.16,138.51,126.93,136.46,127.1,133.59Z"/><path class="cls-12" d="M37.58,538.35c3.29,3.78,8,4.93,12.42,6.56,2.06,1.38,2,2.76-.22,3.73s-4.62,1-7,1.37c-.88.12-2.29-.12-2.55.44-2.85,6-7.83,4.36-12.57,3.7-2.05-.08-4.13-1.15-6.15.16a54.19,54.19,0,0,1-14.2-3.5C4.31,549.72,0,549.45,0,545.22c0-4.55,4.59-4.64,7.83-5.78,1.18-.92,3.13-1.15,3.83-.57,3.47,2.88,4.19-.6,5.75-2.17,2.77-2.39,6.51-1.93,9.51-2.1,5.4-.29,8.45-2,9.29-7.36.12.44.25.88.37,1.32C38.7,531.64,37.5,535.06,37.58,538.35Z"/><path class="cls-13" d="M247.19,303.07c-3.33.28-3.12-2.89-4.08-4.59-1.84-3.25-4.59-3-6.85-1.7-3.09,1.77-.32,3.08,1,4.43s.23,3.2-.9,2.72c-4.54-1.95-10.71,1.65-14.07-4.23-.61-1.05-2.13-1.59-3.25-2.32a3.47,3.47,0,0,0-4.87.77c-2,2.6,2.52,1.81,2.11,4.29-2.42,1.31-5.11.82-8.76.05L213,295a3.23,3.23,0,0,1,1.61-2.24c3.08-1.26,6.15-2.57,8.63-4.86s2.43-4.12-1-5.36a6.77,6.77,0,0,1-2.2-1.65c-1.39-1.83-2.86-1.75-4.6-.39-3.71,2.88-7.83,3.09-12.16,1.6a5.38,5.38,0,0,1-1.51-1.38c-1.24-6.07-.46-7.45,5.17-7.78s11.1-.2,16.66-.07c.45,0,2.05,1.94,1.91-.57-.62-2.2-.76-4.28,1.27-5.88,1.67,1.49,3.43,0,5.14.16a3.78,3.78,0,0,1,2.43,2.07c1.51,5,.77,10.11.76,15.17,0,4.35,1.68,6.65,5.94,7.16a4,4,0,0,1,1.7,1.28Z"/><path class="cls-3" d="M94.61,62.75C91,64.35,92.5,61.35,92.12,60c-.69-.87-.3-2-.64-2.91a8.57,8.57,0,0,1-.11-1.52c0-1.28-.59-2.46-.6-3.73,3.67-2.17,6.29-3.89,3.36-9.33-2.32-4.3.87-10.08-.64-15.15,7.53,5.32,13,12.45,17.76,20.21-.82,1.75-1.65,3.5-2.46,5.22-3.08-1,.64-5.61-3.5-5.54-2.05,0-2.35,1.95-2.93,3.29-.84,2-2.67,3.3.46,6.07,2.44,2.17-.41,7.72,1.29,11.6.14.3-.34.83-.38,1.27-.52,5.32-3.75,11.82-7.47,15a3.24,3.24,0,0,1-2.37-2.58,5.74,5.74,0,0,1,0-1.85,4.8,4.8,0,0,1,1.43-2.33A4.24,4.24,0,0,1,97,77c1.19-.35,2.71-.42,1.9-2.37-1.21-1.4-3.53-1.59-4-3.74-.06-3.11,6.5-2.22,4.08-6.76C97.8,62.68,96.47,61.88,94.61,62.75Z"/><path class="cls-14" d="M207.63,356.16c1.36-2.08,3.5-1.2,5.36-1.41a44.23,44.23,0,0,1,21.66,1.4c2.3.76.78-.69,1.13-.92,2.64-1.71,11.25-1.36,13.46.7,1.55,1.45,1.4,3-.72,3.44-2.71.6-3.84,3-5.8,4.39-5.59,4.41-12.74,5.89-18.49,10-2.74,1.1-3.15-1.46-4.36-2.78-1.93-3.37-3.79-6.8-6.69-9.48A25.79,25.79,0,0,0,207.63,356.16Z"/><path class="cls-3" d="M311,526.77c-3.43,3.49-5.7,7-6,12.53-.4,7.14-9.57,10-14.87,5.21a9,9,0,0,0-6.69-2.35c-2.12,0-4.76.7-5.21-2.68,2.64-2.66,7.09-1.14,9.6-4.21-.25-1.86-3.32-1.53-3.07-3.8,4.53-1.6,9.93-.3,13.76-4.18q2-1.77,4.07-3.52C305.89,523.36,308.59,524.64,311,526.77Z"/><path class="cls-15" d="M28.29,553.06c1.37-1.38,2.49,0,3.59.44,3.05,1.27,5.3,1.37,5.43-2.85s2.55-2.46,4.56-1.67a3,3,0,0,1,.94,1.4c.32.7-.57,1.78.21,2.08s1.36-.72,2.06-1.16a25.83,25.83,0,0,1,19.3-1.23c10.8,3.36,22.13,4.77,33.22,7.08-1.37,1.62-3.26,1.28-5,1.32-21.64.44-43.26.28-64.74-2.86a9,9,0,0,1-2.36-1.14C26.14,553.45,27.58,554,28.29,553.06Z"/><path class="cls-3" d="M221.12,89.77a10.74,10.74,0,0,1-3.47,7c-1.57,1.59-3.5,3-1.74,5.64,1.42,2.16,3.05,4.23,5.87,3.62,6.23-1.35,5.42,1.42,3.13,5.46,8.11-.32,15-4,22.21-6.61.49,1.61-.42,2.7-1.36,3.79a33.51,33.51,0,0,1-16.8,5.67c-3.61.58-7.17.62-10.55-1.07-2.17-1.24-4.58-1.45-7-1.65-4-.41-8.36,3.92-11.88-1.11-.1-.66-.47-1.8-.25-1.92C207.8,103.78,213.65,95.83,221.12,89.77Z"/><path class="cls-16" d="M237.47,247.46c8-13.65,12.27-29.18,21.66-42.11.25-.35.72-.95.62-1.09-6.48-8.59,3.34-4,4.75-6.12,4.14-6.07,10.83-10.48,12.36-18.27,1-5.23,3.17-10.11,2.76-15.81-.19-2.67,3.14-5.91,7.16-6.08a13.62,13.62,0,0,0-4.45,8.85,61.93,61.93,0,0,1-16.76,34.63c-11.21,11.87-16.76,27.06-22.68,41.93C241.67,245.53,241.22,248.68,237.47,247.46Z"/><path class="cls-17" d="M241.54,362.91c2.08-2.39,5-3.57,7.93-5.07-11.41-4.69-12.59-4.48-12.08,2-7.34-5.52-16-4.58-24.4-5.06,5.77-3,11.94-.88,17.9-1.33,4.72-.35,9.51.2,14.23-.12,7.87-.53,12.52-5.46,15.58-12.26,2.21,4.38,4.51,8.72,5.33,13.64-5-2.6-7.49,3.35-11.94,3.71-2.73.22-6.73,1-8.47,4.52C244.26,363.86,242.9,364.12,241.54,362.91Z"/><path class="cls-18" d="M378.68,134.73c-.45,1.26-2.82,1.79-2.1,3.16,2.36,4.41,2,9.12,2.31,13.82.16,2.46,2.13,3.85,4.18,5-.24,2.67-2.3,2.6-4.2,2.78-1.6-5-3.8-8.36-10.12-8.95-2.25-.21-5-5.12-8.64-6.5-.24-.09-.27-.73-.4-1.12-.84-2.62,2.2-1.49,2.71-2.81A52.16,52.16,0,0,1,378.68,134.73Z"/><path class="cls-19" d="M187.15,191.75c-2.84.37-4.7,2.37-6.74,4.06-3,1.43-5.22,1.68-4.19-2.84l1.56-6.62c.61-3.73,3.22-5.6,6.38-7.12,3.43-1.66,7-3,10.36-4.78,3-.64,5.92-1.24,7,2.82a2.59,2.59,0,0,1-2.06,2.29Z"/><path class="cls-20" d="M244.31,426.72c.07,14.63,2.51,28.59,10.57,41.23,1.45,2.27,3.79,4.67,2.84,8C246.94,462,241.89,446.24,242.9,428.6c.69-12.05.8-24-6.39-34.59-2.75-3.37-5.41-6.79-7-10.9l0,.06c-1.49-2-4.21-3.3-3.4-6.47,3.38.84,5.73,1.57,7,6.17,1.53,5.73,6.09,10.55,8.86,16.13,1.94,3.91,2.2,7.51,2.33,11.46A43.58,43.58,0,0,1,244.31,426.72Z"/><path class="cls-21" d="M456.21,129.57l1.46-1.21c2.65-3.89,8.84-5.25,8.18-11.47a20.25,20.25,0,0,0-1.61-2.08,5.63,5.63,0,0,1-1.16-4.26c.19-1.47.72-2.88.83-4.37a7.35,7.35,0,0,0-1.52-4.85,9.84,9.84,0,0,0-4.1-4.06c-2-1.5-4.37-1.14-6.65-1.21-10.23-1.89-13.72,5.62-17.59,12.61a3.41,3.41,0,0,1-2.47,1.33l-3.92.34"/><path class="cls-22" d="M41.88,550.34c0-.45,0-.9,0-1.36a10.36,10.36,0,0,1,6.3-1.35c2.27.2,2.71-.81,1.83-2.72,11.4,2.39,22.38,6.62,34,8,.49-.45.89-.36,1.22.2,6.66,2.2,13.69,1.78,20.51,2.89-2.5,1.94-5.42.92-8.16,1.15-12.72-.76-24.94-3.57-37.22-7.06-4.31-1.23-10.93-.26-15.79,3C41.86,554,43.12,550.91,41.88,550.34Z"/><path class="cls-23" d="M173.72,169.82c6.06,3.51,6.34-3.39,9.42-5.22,3.75,1,1.86,3.39,1.35,5.45h0c-3.94,8.81-11.28,10.41-19.43,4.25-2.52-4.66-3.11-9.87-4.27-14.92a1.74,1.74,0,0,1,1.54-.69,8,8,0,0,1,3.7,2.41,22.94,22.94,0,0,1,1.73,2c1.2,1.69,3.09,2.49,4.74,3.62C173.41,167.52,174.11,168.46,173.72,169.82Z"/><path class="cls-24" d="M165.06,174.3c7.55,3.48,14.18,2.75,19.43-4.25.18,8.33,5.62,4.33,9.48,4,.17.24.35.47.53.7l-.57.66c-4.86,4.41-12.29,5-16.15,10.91.06-2.82-2.32-2.89-4.09-3.51C169.44,181.35,166.35,178.75,165.06,174.3Z"/><path class="cls-3" d="M285,531.28c1.11,3,7.33-.36,6,3.86-.83,2.69-5.1,4.43-8.87,4.34-1.33,0-2.65,0-4,0-1.84-1.85-1.83-4.77-5.78-5.54-4.27-.82.46-5.35-.95-8l1.74-2.81c1.77.54,3.71.67,5,2.19,1.75,2.25,4.53,2.93,6.76,4.44l.08.11c.41.34.53.67.37,1S285.18,531.28,285,531.28Z"/><path class="cls-16" d="M229.3,113.43c5.63-1.24,11.49-1.87,16.14-5.83,1.06-.86,2.05-1,2.92.28-7.62,7.74-25.26,10.58-35.26,6.18-5.45-2.4-10.74,1.66-16.22,1.65q1.32-2.58,2.65-5.15c4.21,1.54,8.49-.14,12.72.21,1.41.5,3.07-.11,4.34,1C220.49,114.87,225,113.54,229.3,113.43Z"/><path class="cls-16" d="M176.22,193c.26,2.62,2,3,4.19,2.84a25.38,25.38,0,0,0-2.71,13.58c.3,3.18-1.73,5.07-4,6.33-2.16,1.18-3.86.13-4.24-2.48C170.67,206.14,174,199.74,176.22,193Z"/><path class="cls-25" d="M157.18,155.14c-.52-1.46-1.27-3.09.71-3.94,3.92-1.68,5.37-5.29,7.15-8.68a1.45,1.45,0,0,1,1.57-1.38l5.83.08,2.44,1.79c1.5,1.43.71,2.9.1,4.37-1.36,2.68-3.95,3.61-6.51,4.57-.5.26-1,.5-1.5.77l-.71.44c-.43.34-.89.66-1.34,1a14.05,14.05,0,0,1-1.4.92c-1.48.66-2.73,2.12-4.62,1.32Z"/><path class="cls-26" d="M292.15,10.58a8.57,8.57,0,0,1-2.95,4.78c-2,2.13-3.53,4.81-6.91,5a5.75,5.75,0,0,1-2-.56c-1.92-1.59-3.82-3.18-2.19-6.05a10.21,10.21,0,0,1,1.61-5.51A28.36,28.36,0,0,1,292.15,10.58Z"/><path class="cls-26" d="M306.88,37.74l2.67-2.08c4.46-1.13,3.27,1.76,2.89,4.08L312,43.57c-.77,3.32-2.76,5.9-5.07,8.29l-.13.18c-1.09,1-.67,3.43-3.07,3.05-5.88-3.66-6.1-4.74-1.65-9.26A7.46,7.46,0,0,0,303.79,43C304.32,41,306.05,39.62,306.88,37.74Z"/><path class="cls-3" d="M271.49,525.92c2.87,2.12-.51,4.44.21,6.63,6.49-.72,6.49-.72,6.52,6.93l-3.94,5.1c-2.34-2-1-5.16-3.52-6.72-.46,1.06-.93,2.14-1.76,4-.21-2-.33-3-.45-4.13q.75-5.26,1.49-10.53Z"/><path class="cls-27" d="M336.17,561h-61.6v-.69h61.9Z"/><path class="cls-28" d="M119.43,319.5c0,2.91.12,5.84-.15,8.73-.84,8.88-.19,17.25,7.11,23.67-5.16-1.83-8.74-4.94-9.25-10.83C116.5,333.72,115.32,326.34,119.43,319.5Z"/><path class="cls-3" d="M316.32,531.16c-2.11,4.11,2.44,5.2,3.62,7.82.39.87,3.23.43,1.55,2.54a5,5,0,0,1-2.76,1.72c-1.68.31-2.32-.92-2.45-2.46s.12-3.63-2-3.78c-10.12-.69-3.45-5.23-2.05-8.57C314.27,528.36,315.8,529,316.32,531.16Z"/><path class="cls-29" d="M146.31,133.21c-3.63-1.34-8.5.95-11-3.75l2.39-1.54c3.84.49,4.19-4.52,7.55-4.78,2-.1,3.2,1.6,4.84,2.31,1.29,3.45-4.23,3.5-3.37,6.73C147.08,132.72,147,133.08,146.31,133.21Z"/><path class="cls-3" d="M297.28,555.74l21.74,0c3.61-2,7.21-1.37,10.81,0,1.83.29,4-.65,5.38,1.35-13.55,1.56-27.1.16-40.65,0C294.41,554.53,295.78,555,297.28,555.74Z"/><path class="cls-30" d="M297.28,555.74c-1.09.08-2.14.25-2.72,1.35-8.28-.21-16.66,1.47-24.83-1.16C278.89,553,288.09,554.57,297.28,555.74Z"/><path class="cls-21" d="M68,475.74a64.07,64.07,0,0,1-12.36,23.32C59.6,491.21,60.32,481.64,68,475.74Z"/><path class="cls-16" d="M237.47,247.46c2.29-.72,3.78-2.49,5.42-4.07l.12,2.78-1.45,1.36c-4.8,5.7-6.25,12.66-7.46,19.72l-.73.67c-.46-.45-.92-.9-1.39-1.34C231.65,259.59,232.06,252.8,237.47,247.46Z"/><path class="cls-16" d="M362.42,140.07c-.91.94-2.8,1-3.7,1.91-4.1-.62-2.88-.48-10,.35-2.49.29-9.47,2.06-10.74-.81C346.3,143.9,354.33,141.4,362.42,140.07Z"/><path class="cls-16" d="M301.64,116.94c-8.05,1.73-10.43-4.7-13.84-9.64A59.24,59.24,0,0,1,301.64,116.94Z"/><path class="cls-31" d="M390.89,152.35a2,2,0,0,1,2.78,0"/><path class="cls-31" d="M378.79,160.55c0-.36,0-.73.08-1.1l4.19-2.78"/><path class="cls-32" d="M86.57,497.32c3.29-6.5,8.3-11.58,13.59-16.43A44.65,44.65,0,0,1,86.57,497.32Z"/><path class="cls-33" d="M17.41,536.7c-.29,1.22-1.68,2.39-.45,3.69.94,1,1.24,1.83-.06,2.61-1,.61-2.47.89-2.71-.51-.74-4.21-4-2.6-6.36-3C10.66,537.27,14,536.68,17.41,536.7Z"/><path class="cls-34" d="M226.14,376.7l3.39,6.47c-5-2.65-7.32-7.43-9.66-12.19l4,2.79c.88.17,1,1,1.3,1.6Z"/><path class="cls-35" d="M98.92,130.43c6.21-2.57,12.6-.27,19.26-1.45-.9,2.19-2.27,1.47-3.19,1.88Z"/><path class="cls-36" d="M242.77,39.38c.38,5.56.39,11-4.39,15.07A64.8,64.8,0,0,1,242.77,39.38Z"/><path class="cls-16" d="M332.52,139c-4,5.11-5.7,1.88-7.4-1.92,2.28-1.87,3.94.7,5.87.42Z"/><path class="cls-37" d="M145.27,123.14c-2.13,2.21-2.49,7.21-7.55,4.78,1.41-2.55,5.26-3.24,5.23-6.89C145.61,119.66,145,121.87,145.27,123.14Z"/><path class="cls-3" d="M93.9,532.5c-4.43-1-6.92-4-8.07-8.2A12.05,12.05,0,0,1,93.9,532.5Z"/><path class="cls-34" d="M229.49,383.11a27.75,27.75,0,0,1,7,10.9C232.75,391.29,229,388.57,229.49,383.11Z"/><path class="cls-38" d="M120.43,457.83c2.53-3.36,4.83-6.91,8.35-9.4-.37,4.23-4.71,6.24-5.65,10.38C122.68,460.83,121.57,457.7,120.43,457.83Z"/><path class="cls-2" d="M138.16,284l1.5,1.51c2.63,1.12,5.73,1.8,5.43,5.71a2.5,2.5,0,0,1-2.74-.3c-1.87-.82-3.08-3-5.47-2.74A5.61,5.61,0,0,1,138.16,284Z"/><path class="cls-39" d="M47.35,512.19l-1.45-1.42c1.32-1.9,3.34-2.41,5.44-2.73.47.89.93,1.78,1.39,2.67l-1.35,1.61A2.79,2.79,0,0,1,47.35,512.19Z"/><path class="cls-40" d="M130.21,445.87c.67-4.17,3.7-6.3,7-8.17C135.84,441.23,133,443.5,130.21,445.87Z"/><path class="cls-28" d="M123.39,308.61l-4,10.93C119.08,315.3,119.1,311.18,123.39,308.61Z"/><path class="cls-41" d="M257.76,477.18a15.08,15.08,0,0,1,4.37,9.26C259.18,484.06,257.41,481.12,257.76,477.18Z"/><path class="cls-42" d="M275.42,96.73l12.35.08c-3,3.1-7.54-.29-10.64,2.45C275.71,99,275.45,97.94,275.42,96.73Z"/><path class="cls-43" d="M101.3,479.52a21.72,21.72,0,0,1,7.07-8C107.68,475.63,104.74,477.8,101.3,479.52Z"/><path class="cls-3" d="M69,15.49a14.67,14.67,0,0,1-12.13-.07A29,29,0,0,1,69,15.49Z"/><path class="cls-36" d="M312.44,39.74c.11-2.13-.65-3.63-2.89-4.08a5.21,5.21,0,0,1,3.66-3.38C313.38,34.81,314.84,37.47,312.44,39.74Z"/><path class="cls-38" d="M114.29,463.53,118,461c1.21,4.19-1.49,4.77-4.59,5C113.12,464.92,113.12,464,114.29,463.53Z"/><path class="cls-44" d="M306.89,51.86,312,43.57c.08,1.41.16,2.82.25,4.24C309.84,48.37,309.74,51.91,306.89,51.86Z"/><path class="cls-45" d="M207.63,356.16c3.48.08,4.78,2.43,5.55,5.34l-7-4.05Z"/><path class="cls-45" d="M193.81,365.54c.18-.79.35-1.57.52-2.36l5.1-1.64C200,366.37,195.85,364.44,193.81,365.54Z"/><path class="cls-46" d="M78.45,514.9l-1.36.42c-1.78.84-3.46,1.92-5.47,2.16A3,3,0,0,1,69,516.31l9.61-4Z"/><path class="cls-47" d="M114.29,463.53l-.84,2.41-5,4.43C108.81,466.73,111.2,464.83,114.29,463.53Z"/><path class="cls-48" d="M173.86,147c0-1.42,2-2.34,1-4l1.39-.21,2.68,2.64a6.17,6.17,0,0,1-1.93,2.48C175.61,148.9,174.53,148.69,173.86,147Z"/><path class="cls-36" d="M271.45.59c-3.18,2-6.66.75-10,.89C264.62-.6,268-.08,271.45.59Z"/><path class="cls-49" d="M158.9,156.37l5.24-2.66a2.2,2.2,0,0,1,.33,1.75,7.22,7.22,0,0,1-3,3.44.71.71,0,0,1-.66.48Z"/><path class="cls-31" d="M389,162.57c-.37-.31-1.05-.61-1.2-1.08a1.39,1.39,0,0,1,1.31-1.79,1.63,1.63,0,0,1,1.35.85"/><path class="cls-36" d="M245.7,28.67c-.79,1.17,1.55,3.72-1.69,3.8,0-2.37.11-4.72,1.36-6.85C246.51,26.53,246.37,27.57,245.7,28.67Z"/><path class="cls-50" d="M126,401.87a5.73,5.73,0,0,1-5.24,4.53A10.54,10.54,0,0,1,126,401.87Z"/><path class="cls-3" d="M342,544.86c-2.16,2-3.38,1.44-3.76-1.39A4.3,4.3,0,0,1,342,544.86Z"/><path class="cls-36" d="M245.7,28.67l-.33-3.05c.17-1.2.33-2.39.49-3.59C247.46,24.28,247.7,26.5,245.7,28.67Z"/><path class="cls-3" d="M44.29,19.07c-.11,3.09-1.5,3.35-3.75,1.71Z"/><path class="cls-3" d="M4.08,75c1.65,2.27,1.74,4.52-.06,6.75Z"/><path class="cls-51" d="M28.29,553.06a3,3,0,0,1-2.82,1.41l-3.91-.16C23.48,552.18,26,553.38,28.29,553.06Z"/><path class="cls-2" d="M221.1,280.42l1.19,1.06c3.78,1,4.73,3,1.94,6.07-3.12,3.4-7.18,5.12-11.66,6a69.75,69.75,0,0,1-8,.09c-8.47-.33-12.6-4.08-16.05-14.39-.77-6.54-.36-13.09-.33-19.65a10.12,10.12,0,0,1,3.31-7.88h-.08a1.75,1.75,0,0,1,1.76-.54c3.26,1.5,6.86,2.54,8.57,6.19-.28,4.48,1.27,6.94,6.31,6.14,2.55-.4,5.26.32,7.73-.94a6.24,6.24,0,0,1,1.77-.73,13.31,13.31,0,0,1,9,3.33q.14.64.3,1.29c-.11,2.26-.23,4.51-.34,6.77-6.37,1.67-12.86.25-19.28.77-2.07.17-4.94-1.13-5.88,1.71a4.86,4.86,0,0,0,2.14,5.84h0c4.16,2.11,8.12,2,11.56-1.38C217.26,277.9,219.18,278.09,221.1,280.42Z"/><path class="cls-16" d="M226.54,265.13c-3.33,0-6.28-1.39-9.25-2.66-2.43-1.7-2.64-5.55-6.08-6.24a14.65,14.65,0,0,0-5-.29,14,14,0,0,0-3.78,1.46,1.48,1.48,0,0,1-1.5-.4c-2.38-2.37-6.27-2.28-8.35-5.14.76-3.78,4.15-4.37,6.91-5.72,1.05,0,2.08-.09,2.72-1.11,3.11-2,6.56-.46,9.81-.92,6.41.32,11.45,2.72,13.9,9.1,2,3.39,3,6.86.95,10.61C226.78,264.26,226.67,264.69,226.54,265.13Z"/><path class="cls-52" d="M176.74,147c.21-1.28,1.41-1.15,2.22-1.58,9.74,1.85,11.73,5.42,6.22,12.92-3.16,4.28-5.07,10.25-11.46,11.46l-1.64-1.89c-.79-2.05-4-2.72-3.26-5.63.86-2.32,3-3.14,4.91-4.24a18,18,0,0,0,5.54-4.14c.83-1.19,1.73-2.34,1.12-3.91C179.57,148.53,177.7,148.32,176.74,147Z"/><path class="cls-24" d="M212.11,245c4.69-3.67,11.31-2.3,16.24-6.22,2.89-2.29,6.56,1.43,8,3.75,1.84,3-.89,5-4,6.21-3.79,1.49-7.4,3.36-11.09,5.07C218.16,250.89,212.59,250.39,212.11,245Z"/><path class="cls-53" d="M214.43,155.14c5.32-2.42,9.57-6.37,14.22-9.89A48.2,48.2,0,0,1,213,164.6c-1.28-1.66-1.13-3.78-1.87-5.62C211.09,156.72,213,156.17,214.43,155.14Z"/><path class="cls-54" d="M211.64,159.17c3.3,1.09,1.4,3.5,1.37,5.43l-2.72,4.06c-1.51,2.36-2.66,5.14-6.16,5.1-3.37-.7-3.55-3.15-3.26-5.88a5.08,5.08,0,0,1,2.74-3.22,4.28,4.28,0,0,0,4-2.73C208.76,160.74,209,158.23,211.64,159.17Z"/><path class="cls-36" d="M283,66.72l-2.06,1.56-2.45.53c-1.05-2.38,1-3.3,2.19-4.61C285.4,59,292.13,61,297.86,59.38c2.22,2.91-.56,3.46-2.16,4.57l.14,0C291.64,65.23,287.11,65,283,66.72Z"/><path class="cls-16" d="M204.94,172.82l5.35-4.16c-1.34,8.05-4.66,11.38-10.85,10.9.44-.48.89-.95,1.34-1.43C202.14,176.33,202.44,173.71,204.94,172.82Z"/><path class="cls-16" d="M242.73,126.82c-.38,2.89-2.66,2.39-4.59,2.43-2.13.05-3.53-.89-3.17-3.19s2.46-2.13,4.21-2.16C241.13,123.87,242.78,124.27,242.73,126.82Z"/><path class="cls-16" d="M203.61,164.66l-1.45,2.68c-2.17,2.92-3.28,7.12-8.16,6.78l0,0C195.36,169.08,196.46,163.79,203.61,164.66Z"/><path class="cls-16" d="M225.17,253.1c0-.53.07-1,.11-1.58,4.37,2.7,4.16,7.06,4,11.34-.06,1.78-1.33,1.31-2.4,1C226.66,260.19,226.57,256.54,225.17,253.1Z"/><path class="cls-16" d="M211.64,159.17l-4,2.76c-1.57-7.23-1.57-7.23,6.83-6.79Z"/><path class="cls-16" d="M184.49,170.05c-.19-1.88.65-4-1.35-5.45a6,6,0,0,1,5.29-2.45,2.76,2.76,0,0,1,2.63,2.67c0,2.76-1.45.9-2.54.74C185.06,165.06,186.65,169.26,184.49,170.05Z"/><path class="cls-55" d="M275.47,81.75c2.87.33,3,2.23,2.37,4.4-.33,1.08-1.16,2.18-2.44,1.76-1.63-.54-1.1-2.19-1.27-3.45A2.82,2.82,0,0,1,275.47,81.75Z"/><path class="cls-16" d="M214.36,243.41l-1.4,1.38-10.73.24c0-.54,0-1.09-.07-1.63Z"/><path class="cls-56" d="M248.36,107.88l-2.92-.28,1.68-2.67,5.45-1.21Z"/><path class="cls-57" d="M187.21,251.54l2.69,0c-1,8.9-.6,17.84-.67,26.76,1.12,7.48,4.78,12.81,12.53,14.62,1.14.26,2.2.5,1.75,2.06-1.39.26-4.22-.91-1.87,2.57.89,1.33,3.58,5.13-1,5.34-3.1.14-8.59,2.91-9.07-3.14-.34-4.32-3-4.88-5.73-6.15a6.82,6.82,0,0,1-1.7-5.41c.28-3.49-1.61-5.12-4.62-6-5.73-4.35-8.83-18.35-5.41-24.21,1.3-2.23,3.46-2.77,5.71-2.77A8.46,8.46,0,0,0,187.21,251.54Z"/><path class="cls-2" d="M145.19,290.9c-1.7-1.94-4.59-2.65-5.53-5.36,2-4.85,1.55-10.12,2.5-15.15v.05c1.51-1.45,1.33-3.87,3-5.22a3.16,3.16,0,0,1,1.2-.33c1.36,3.61.89,7.27.32,10.94a8.28,8.28,0,0,0,6.67,6.84c2.42-.9,4.85-.93,4.48,2.38-.32,2.84,2.77,7.75-3.65,7.89C151,293,147.78,293.37,145.19,290.9Z"/><path class="cls-2" d="M203.51,295c-7.61-2.35-13.49-6.44-14.92-14.95.49-.66,1-.64,1.49,0,3.62,11.64,12.81,13,23,12.45a2.58,2.58,0,0,1,1.3,1.2L213,295Z"/><path class="cls-2" d="M162.74,278.73c-2.82-7.1-.62-14.51-1.34-21.74a2.35,2.35,0,0,1,3.23.14c2.26,4,1.15,8.42,1.42,12.67-.18,2.27,0,4.59-.82,6.79A3.4,3.4,0,0,1,162.74,278.73Z"/><path class="cls-2" d="M180.43,281.46c3.75-.49,5.91.65,5.48,4.94-.24,2.39-.08,4.81-.1,7.22-3.58-.6-7.49,1.42-10.79-1.36l.65-.69c8.09-2.17,8.24-2.43,4.69-8.34A1.75,1.75,0,0,1,180.43,281.46Z"/><path class="cls-2" d="M163.94,257l-2.54,0-9.8-.18a1.72,1.72,0,0,1,.37-2.45l1.56-.07C159.89,252,161.63,252.4,163.94,257Z"/><path class="cls-2" d="M153.28,292.4c3.87.23,4-2.23,4.08-5.18s-.76-4.72-4-4.55c2.51-1.86,5.14-2,5.13,1.63s3.14,10-5.21,9.31q-.68-.41-.45-.81C153,292.53,153.13,292.4,153.28,292.4Z"/><path class="cls-2" d="M146.53,261.25a10,10,0,0,0,1.35-.09c-.7,4.87,1.31,9.95-1.2,14.67-.11-3.65-.21-7.29-.32-10.94C145.23,263.62,145.63,262.42,146.53,261.25Z"/><path class="cls-2" d="M175,292.26c-4.63.76-7.39-1.79-9.54-5.41a2.83,2.83,0,0,1,1.61-.79,4.36,4.36,0,0,1,1.76.44c1.81,2.17,5.71,2.08,6.2,5.7Z"/><path class="cls-2" d="M153.28,292.4c0,.4,0,.8,0,1.21-3.9.2-7.69-.07-10.92-2.66l2.84-.05Z"/><path class="cls-2" d="M166.83,286.85h-1.35c-2.67-2.11-2.82-5.08-2.74-8.12l1.23-1.36c1.2.73,1.51,2,1.89,3.19C166.15,282.66,168,284.53,166.83,286.85Z"/><path class="cls-3" d="M94.85,80.41,94.76,82c-1.41,1.52-2.51,3.28-3.84,4.86-.14,1.25-.38,2.45-1.65,3.11a2.6,2.6,0,0,1-3.71,0l-2.37,2.78c-1.09-1.2-.1-3.43-2-4.26-.75-1.38-.56-3-1-4.42a7,7,0,0,1-.09-2.8c.43-1.17.57-2.59,2.28-2.66a4.63,4.63,0,0,1,3.34,3.14c.34,1.46-1.52,2.61-.62,4.15-.73-1.57,1-2.65.85-4.11.15-2.72-1.52-3.48-3.83-3.55a3.47,3.47,0,0,1-2.24-2.75c-.3-.76-.8-2.26-1-2.08-1.54,1.42.36,2.48.65,3.76,1,2,.92,3.65-1.48,4.56a6.45,6.45,0,0,1-3.55.45c-2.58-1.27-3.19-.44-2.19,2.1a4.45,4.45,0,0,1,0,1.78,4.5,4.5,0,0,1-3.08,3.19,7.16,7.16,0,0,1-4.31-1.23c-1.66-.92-2.28-3-4.07-3.71-.83.29-.23-.94-.44-.06-.17.73.65.67.94,1.06a7.56,7.56,0,0,1,2.4,6.34c0,.3-.07.59-.11.89.29,2.72,3.55,4.29,2.85,7.39A6.49,6.49,0,0,1,65,106.09c-3.5-.29-2.57-3.94-4.25-5.61-1.29-2.25-2.11.15-3.16.31l-1.81,4c-1.88.29-3,1.85-4.42,2.79-2.92-.07-4.84-1.26-5-4.44.91-2.89-1.48-3-3.14-3.71-.5-1.47-1-2.94-1.51-4.41a7.9,7.9,0,0,1-1.52-1.9c-.9-1-1.63-.66-2.27.32a5.81,5.81,0,0,1-1.54,1.87c-3.18,0-1.42-3.23-2.81-4.4a1.86,1.86,0,0,1,0-1.69c.31-.62,1-.88,1.36-1.45a17.09,17.09,0,0,1-1.88.59,4.34,4.34,0,0,1-3.38-1.09q2-4.78,4-9.58c-.58-1.21-.46-2.88-2.22-3.29-1.46-.27-3,0-4.36-.76-1.51-.13-3.13.19-4.29-1.19.37-2.43-.73-4.19-2.56-5.61,1-3.27,3.57-.61,5.22-1.42,2.67-2.21,5-1.06,7.18.77.69.45,1.61,1.59,2.13,1,1-1.21-.64-1.64-1.25-2.36-1.61-1-1.82-3.06-3.22-4.21a2.69,2.69,0,0,1-1.42-1.92,1.86,1.86,0,0,1,.71-1.41c1.22-1.58-3-4.75,1.57-5.35,1.24,1.9,3.63,2.33,5.1,4,1.46-1.78,2.88-1.81,4.27.07.51.5.22,1.67,1.13,1.66.28,0,.15-1.12.16-1.73,1.74-3-1.88-5.08-1.36-7.88a2.17,2.17,0,0,1,1.54-.92,4.29,4.29,0,0,1,3.14,1.76c.74.23,1,2.92,2.22.4-1.5-1.82-3.69-2.29-5.71-3.07a3.82,3.82,0,0,0-5.09,1.53c-3-6.91-2.62-7.53,6.87-12.05a2.26,2.26,0,0,1,.21,1.67c-.18.74-1,1.4-.74,2.11s1,.13,1.54,0c1.7-.77,2-2.58,2.9-3.88a16.12,16.12,0,0,0,1.77-.74c2-1.09-4.65-4.48.89-4.21,3.08.15,2.84,3.32,2.21,5.87-.31,1.26-.44,2.57-.65,3.86.32.54.42,1.52,1,1.5,1,0,.86-1.24,1.35-1.85,2.23-1.17,5.26-.46,6.92-3a33.68,33.68,0,0,1-2.47-5.35A11,11,0,0,0,61,23.33a2.81,2.81,0,0,1,2.9-3.09c2.18-.1,2.3,1.73,2.4,3.31a21,21,0,0,1,0,4c-.83,6.36-.43,5.71,4.9,9.27,4,2.67,6.73,7.26,10,11-1.69,2-.83,4.52-1.28,6.77,0,.45,0,.9,0,1.35-.94,1.21-2.8.72-3.65,2-.3,1.85,1.39,1.73,2.32,2.35a6.76,6.76,0,0,1,1.31,1.06l1.43,1.48c1.29,1,3.12,1.62,3,3.78-2.24,1.91-2.59,4.82-.59,6.19,2.33,1.6,5.68,2.44,8.46-.12a1.62,1.62,0,0,1,1.73-1.8l1,0,5.43,2.6a18.19,18.19,0,0,1-3.91,4.07l-.31.25C95.14,78.43,93.32,78.64,94.85,80.41Z"/><path class="cls-58" d="M102,116.86c1.12-7.72,7-12.45,12-18.82,3.48,5.71,6.81,11.15,10.12,16.6,1.84,3-1.39,4.31-2.28,6.4-3,1.9-5.33-.4-7.86-1.4a5.27,5.27,0,0,0-4.18-1C106.82,119.88,104.44,118.31,102,116.86Z"/><path class="cls-3" d="M71.74,85.86c0-.39,0-.77,0-1.15a3.13,3.13,0,0,1,3.14-2.94l2.33-1.36c1.06,1.35,3,0,4.07,1.34l0,2.64a23.17,23.17,0,0,0-3.76,4l-3,.13A5.06,5.06,0,0,1,71.74,85.86Z"/><path class="cls-59" d="M65,106.09c-.17-2.2-.69-4.48,1.48-6.12,2.25-.29,3.76.94,3.55,3C69.77,105.63,67.52,106.33,65,106.09Z"/><path class="cls-60" d="M73.19,92.24c2.23.42,3.92,1.33,2.94,4-.59,1.62-3,2.76-3.52,2.28-1.67-1.46-2.47-3.65-.68-5.82A1,1,0,0,1,73.19,92.24Z"/><path class="cls-3" d="M31,60.05c2.56.37,1.53,3.12,2.86,4.31a3.36,3.36,0,0,1-.9,3.65c-2.25-1.45-4.41-3.19-7.39-2.54,0-.46,0-.92,0-1.37a1.15,1.15,0,0,1-.38-1c.08-.37.16-.55.26-.55C27.26,61.72,29.38,61.51,31,60.05Z"/><path class="cls-61" d="M65,87.05l3.82,1.65a1.5,1.5,0,0,1,1,1.33c-.12,1.42-1.21,2-2.28,2.52l-3.81,0,0,0C62.9,90.49,61.57,88.22,65,87.05Z"/><path class="cls-62" d="M54,40c1.44,1.58,2.72,3.24.46,5.08A2.34,2.34,0,0,1,51.36,45c-1.92-1.6-1-3.13.26-4.6Z"/><path class="cls-63" d="M20.3,66.89c2-.08,4.15-.28,4.85,2.12.49,1.71-.91,2.72-2.29,3.49C19.64,71.71,19.88,69.35,20.3,66.89Z"/><path class="cls-64" d="M90.92,86.87c.09-2.56-1.07-6.11,3.84-4.86l1.5,2.47C95.1,86.67,93.08,86.92,90.92,86.87Z"/><path class="cls-65" d="M41.88,55.92c1.57,1.31,3.24,2.63,1.22,4.82a2.11,2.11,0,0,1-3,.3c-2.18-1.8-.85-3.46.46-5A2.36,2.36,0,0,0,41.88,55.92Z"/><path class="cls-66" d="M42.83,37.05l.66-1.36,3.91-.12c1.84,3.18.91,5-2.72,5.41A2.9,2.9,0,0,1,42.83,37.05Z"/><path class="cls-67" d="M36.32,55.92c-3.28.73-6.05.79-5.1-4C34.16,51.68,37.57,50.79,36.32,55.92Z"/><path class="cls-68" d="M43.25,99.48c1.75-.37,3.54-2.77,5.25-.26,1.57,2.32-.92,2.9-2.11,4C45.23,102.05,42.4,102.32,43.25,99.48Z"/><path class="cls-69" d="M77.52,88.42c-1.06-3.51,0-5,3.76-4,1.71,1.42.23,2.76-.09,4.14Z"/><path class="cls-70" d="M27.15,73.69c1.72-1.5,3.45-1.62,5.18,0a1.79,1.79,0,0,1,0,2.69C29.07,78.45,27.17,77.89,27.15,73.69Z"/><path class="cls-71" d="M26.41,83.7a2.34,2.34,0,0,1-2.57,2.36,2.37,2.37,0,0,1-2.57-2.4c-.06-1.8.9-3,2.8-2.75C25.54,81.09,26.24,82.25,26.41,83.7Z"/><path class="cls-72" d="M81.42,98.28c1.4.38,2.4,1.15,2.33,2.68a2.15,2.15,0,0,1-2.07,2.1,2.42,2.42,0,0,1-2.65-2.3C78.91,99.25,80,98.5,81.42,98.28Z"/><path class="cls-73" d="M36.41,95.36l.09-2.61c1.87-2.73,3.62-3,5.19.26,0,.68,0,1.37.05,2.06C40.06,96.86,38.29,97.18,36.41,95.36Z"/><path class="cls-74" d="M58.44,31.69c2.39,1.06,4.68,2.17,2.47,5.35C55.91,37.19,55.39,35.26,58.44,31.69Z"/><path class="cls-75" d="M36.62,47.74c-.42-5.84,2.48-4.52,5.65-2.61.46,1,.42,1.94-.7,2.54a1.24,1.24,0,0,0-1,.37Z"/><path class="cls-3" d="M69.14,89.94a5.9,5.9,0,0,1-.37-1.24l3-2.84a2.46,2.46,0,0,1,2.73,2.69v1.36C72.7,90.85,70.94,93,69.14,89.94Z"/><path class="cls-76" d="M84.27,66.64c-1.48-.87-2.9-1.79-3-3.78,1.41-1.14,2.91-2.66,4.57-.57S85.55,65.46,84.27,66.64Z"/><path class="cls-77" d="M85.56,90l3.71,0c.81,2,1.29,4.3-1.72,4.37S85,92,85.56,90Z"/><path class="cls-78" d="M64.89,111.79c-.41,1.68-2,1.46-3.15,1.51-1.4.06-2.58-.75-2.32-2.4a2,2,0,0,1,2.89-1.67C63.43,109.66,64.9,110,64.89,111.79Z"/><path class="cls-79" d="M57.61,100.79C57,99.38,55.79,98,57.3,96.47a2.13,2.13,0,0,1,3-.29c1.65,1.27.95,2.8.43,4.3C59.75,100.91,58.89,103,57.61,100.79Z"/><path class="cls-3" d="M90.77,51.87c1.49,1,3.65,1.72,1.57,4.09a4.32,4.32,0,0,0-3,.92,3.92,3.92,0,0,1-1.47.66C85.48,53.93,87.33,52.49,90.77,51.87Z"/><path class="cls-80" d="M81.29,48.75c1.77,0,3.38.64,3.36,2.54S83,53.76,81.21,53.56C78.19,51.91,78.3,50.31,81.29,48.75Z"/><path class="cls-81" d="M93.87,70.91l-1.73,1.8c-1.68,0-3.28-.2-3.5-2.27A2.29,2.29,0,0,1,90.47,68C92.9,67.34,93.65,68.87,93.87,70.91Z"/><path class="cls-82" d="M114,119.64l7.86,1.4c-3.34,3.66-6.25-.37-9.38-.51.1-.17.16-.41.3-.47A10.33,10.33,0,0,1,114,119.64Z"/><path class="cls-3" d="M74.49,57.37c.68-4.81,3.66-.73,5.41-1.4,0,1.8,0,3.61,0,5.41l-1.67-.16C77.12,59.79,75.59,58.79,74.49,57.37Z"/><path class="cls-83" d="M94.61,62.75c.43-1.42.83-3.16,2.76-2.78,2.42.47,1.5,2.58,1.56,4.15C97.24,64.44,95.57,64.69,94.61,62.75Z"/><path class="cls-84" d="M29.69,87.32l3.91,0c1,.72.8,1.65.44,2.6A1.18,1.18,0,0,0,33.6,91C30.18,92,28.84,90.85,29.69,87.32Z"/><path class="cls-85" d="M51.38,107.63c-.2-3.57.82-5.22,4.42-2.79C55.85,108.2,54.33,109.06,51.38,107.63Z"/><path class="cls-86" d="M75.11,111.37c-1.3-.38-2.27-1.23-2-2.78a2,2,0,0,1,2.33-1.78,2.38,2.38,0,0,1,2.14,2.8A2.08,2.08,0,0,1,75.11,111.37Z"/><path class="cls-3" d="M25.52,63c0,.38,0,.76,0,1.15-3.05-5-.61-6.58,4.14-6.78v1.39A18,18,0,0,1,25.52,63Z"/><path class="cls-87" d="M102,116.86l7.81,1.74c-3,2.6-5.63.21-8.36-.69a1.07,1.07,0,0,1,.08-.59A2.06,2.06,0,0,1,102,116.86Z"/><path class="cls-3" d="M69.14,89.94c1.79,1.32,3.55,0,5.32,0l-1.27,2.33-1.26.47-4.47-.16Z"/><path class="cls-3" d="M81.29,48.75c-1.75,1.58-1.55,3.18-.08,4.81l-1.3,1.06c-1.83-2.69-2.93-5.23,1.28-6.77C81.22,48.15,81.25,48.45,81.29,48.75Z"/><path class="cls-3" d="M92.07,57.28c1.63.89.18,1.83.05,2.75-2,.07-3.82,0-4.28-2.49l.18-.2A5.82,5.82,0,0,1,92.07,57.28Z"/><path class="cls-3" d="M32.34,76.37c0-.9,0-1.79,0-2.69,3.16.42,2,2.35,1.4,4.06Z"/><path class="cls-20" d="M225.13,375.37c-.44-.53-.87-1.07-1.3-1.6.62-3.69,4.39-4.22,6.6-4.82,4.34-1.18,7.46-4,11.11-6h4.08c-4,6.1-11.27,6.37-17,9.37C227.05,373.12,225.34,373.2,225.13,375.37Z"/><path class="cls-88" d="M285,531.28l.09-1.43c4.65.11,9-1.25,13.39-2.56C295.26,532.83,289.83,531,285,531.28Z"/><path class="cls-89" d="M244.31,426.72q0-8.13,0-16.26A21.72,21.72,0,0,1,244.31,426.72Z"/><path class="cls-90" d="M285,529.74c-3.06-.25-5.78-1-6.76-4.44A9.41,9.41,0,0,1,285,529.74Z"/><path class="cls-91" d="M62.25,519.08c-1.64,2.73-4.39,3.9-4.73.06-.28-3.22-2.68-4.43-3.4-6.86l2.54.32a21.28,21.28,0,0,1,5.59,3.2,2.82,2.82,0,0,1,.79,1.64A2.63,2.63,0,0,1,62.25,519.08Z"/><path class="cls-46" d="M62.21,516.39c-2.1-.89-4.2-1.8-5.55-3.79,4-.55,6.51,2.47,9.73,3.8A3,3,0,0,1,62.21,516.39Z"/><path class="cls-92" d="M62.21,516.39h4.18l2.6-.09,2.86.15a1.23,1.23,0,0,1-.73,1.85c-2.92-.52-6.17,1.5-8.82-1.14A1.71,1.71,0,0,1,62.21,516.39Z"/><path class="cls-26" d="M299.15,60.16c-5.87,2.69-12.5,1.85-18.48,4a22.28,22.28,0,0,1,.05-15.13c2.52.57,2.06,2.78,2.48,4.5.35.67-.64,1.8.71,2.1-1.78-4.46-.05-6.51,4.41-7.34a44.58,44.58,0,0,0,15.3-6.18,1.74,1.74,0,0,1,1.77.17c0,1.76.2,3.94-1.63,4.67-6.92,2.78-2.85,5,.23,7.29C303.33,57,302.21,59.39,299.15,60.16Z"/><path class="cls-93" d="M282.91,19.44c2.76-.32,3.86-3.22,6.28-4.08-.6,4.4-4.51,5.23-7.54,7s-5.51,3.39-3,7.85c1.68,3,1.81,6.91,2.41,10.45,1.06,6.22,4.71,7,9.77,4.79C294,44.12,297,42.56,300,41.09a2.37,2.37,0,0,1,.42,2.09c-5.65,4.53-11.8,7.28-19.24,5.3-2.64-8.54-5.6-17-5.44-26.13C277.28,19.24,280.49,20.32,282.91,19.44Z"/><path class="cls-36" d="M281.2,48.48c6.81-.27,13.35-1.42,18.82-5.93.56-1,1.52-1,2.47-1.06a2.77,2.77,0,0,1,1.57,1c-2.15,5.37-8,4.21-11.87,6.61-2.15,1.33-5.11,1.38-7.64,2-.41,2.71,5,5.87-.9,7.61-1-1.17-2.14-2.3-1.36-4.06a8.14,8.14,0,0,0-1.57-5.54A1.12,1.12,0,0,1,281.2,48.48Z"/><path class="cls-26" d="M278.15,13.71c-.14,2.35,1.84,3.62,2.75,5.44-1.68,2.22-4.46,1.77-6.66,2.72C271.94,17.42,275.13,15.61,278.15,13.71Z"/><path class="cls-36" d="M274.24,21.87c1.88-1.73,4.37-2,6.66-2.72l2,.29a13,13,0,0,1-7.15,2.91Z"/><path class="cls-91" d="M47.35,512.19l4,.13c-.25,2.59,2.34,3.68,3.1,5.76C48.91,519.9,48.91,519.9,47.35,512.19Z"/><path class="cls-94" d="M37.9,530c5.53,2.26,3.67,4.51,0,6.75A7,7,0,0,1,37.9,530Z"/><path class="cls-95" d="M62.3,517.17c3,1,6,.59,9,.4a1.14,1.14,0,0,1,1.8.2c-3.37,2.63-7.28.76-10.9,1.31C62.27,518.44,62.29,517.8,62.3,517.17Z"/><path class="cls-96" d="M37.9,530q0,3.38,0,6.75l-.3,1.61c-2.64-3-1.75-6.42-1-9.79Z"/><path class="cls-97" d="M73.15,517.77l-1.8-.2c.15-.37.32-.74.5-1.11l5.24-1.14A4,4,0,0,1,73.15,517.77Z"/><path class="cls-98" d="M85.25,553.11l-.63,0-.59-.24c1.63-1.66,3.46-1.48,5.53-.67C88.22,553.61,86.62,552.76,85.25,553.11Z"/><path class="cls-99" d="M431.58,110l1.16-1,.88.34a9.08,9.08,0,0,1,2.38,4c2.64,6.78,7.41,10.43,14.85,10.16a24.15,24.15,0,0,0,6.66-2.09c3.47-1.41,4.4-5.81,8.14-6.89l1.51.93c-.41,5.27-2.75,8.92-8.31,9.84-4.8-.4-8.68,4.53-14.09,1.84C437.44,123.44,432.57,118.33,431.58,110Z"/><path class="cls-100" d="M329.83,555.71H319C323.19,552.29,328.37,552.3,329.83,555.71Z"/><path class="cls-101" d="M267.25,551.71a10.88,10.88,0,0,1-.06-10.87c.12.92.23,1.84.35,2.77a10.75,10.75,0,0,1,0,6.59Z"/><path class="cls-102" d="M267.58,550.2a12.91,12.91,0,0,1,0-6.59A4.85,4.85,0,0,1,267.58,550.2Z"/><path class="cls-2" d="M163.94,257c-2.82-3.42-6.83-2.21-10.41-2.66l5.56-8.1c5.56.76,5-3.28,5.27-6.7,3.88-.74,6.6,1.2,9,3.9.79,3.28,3.33,2.7,5.67,2.58,1.82-1.27,3.6-1.48,5.29.23l1.53,5.33a1.27,1.27,0,0,1,.18,1.81c-2.86,4.19-7.84.81-11.22,3.14-.4.54-.79,1.09-1.14,1.67-2.29,2.22-2.23,5.13-2.46,8-.31,4-1.53,7.66-5,10.11-2.34-1.56-.58-4.05-1.86-5.62Z"/><path class="cls-16" d="M173.35,243.39l-9-3.9-.15-5.5c3.1-1.47,5.81-3.8,9.4-4.15,1.24,4.48.84,9,.24,13.5Z"/><path class="cls-2" d="M185.76,252.76a3.2,3.2,0,0,1,.08-1.23h1.37c.7,4.69-1.76,6-5.87,5.42-5.05-.73-6.82,1.38-6.41,6.39.53,6.49-1.69,13.69,5.5,18.11,0,.39,0,.77,0,1.15-3.7,1.23-5.4-1.3-7.15-3.79-1.5-2.82-1.43-5.92-1.59-9,0-4.34-.66-8.78,1.72-12.79.13-.48.25-1,.37-1.44C177.46,253.26,182.66,257.45,185.76,252.76Z"/><path class="cls-2" d="M190.08,280l-1.49,0c.47-9.5-1.26-19.09,1.31-28.49l1.55.12C189,261,190.17,270.56,190.08,280Z"/><path class="cls-16" d="M199.51,246.14l-6.91,5.71a9.84,9.84,0,0,0-1.23-.17C192,246.73,195.75,246.45,199.51,246.14Z"/><path class="cls-103" d="M299.15,60.16,304,54.28,306.76,52c-1.14,6.34-5.37,9.8-11.06,11.91Z"/><path class="cls-103" d="M283,66.72c3.84-2.95,8.47-2.3,12.85-2.79C291.88,66.33,287.5,66.82,283,66.72Z"/><path class="cls-36" d="M304.06,42.46l-2-.25c.14-2.15,2.14-2.76,3.34-4,.39-.54.8-1,1.5-.43,1.86,2.3-1.39,2.93-1.49,4.58Z"/><path class="cls-104" d="M305.38,38.17c-.1,2.19-2.51,2.46-3.34,4l-2,.34V41.09C301.85,40.21,303.08,38.2,305.38,38.17Z"/><path class="cls-105" d="M166.61,141.14,165,142.53c-3.63-.13-3.3-6-7.58-5.19.57-3.76,2.39-4.27,5.27-2C164.28,137.09,167.51,137.73,166.61,141.14Z"/><path class="cls-106" d="M162.73,135.32c-2.41-1-4.47-1.14-5.27,2-1.08-.16-2.72.06-3.13-.54-1.32-2,1-1.71,1.84-2.43C158.77,132.13,160.89,132.61,162.73,135.32Z"/><path class="cls-107" d="M146.31,133.21a.87.87,0,0,1,.43-1c1.31.77,2.88,1.44,2.8,3.23,0,.42-1.47,1.22-2.07,1.07C145.72,136.05,146.79,134.3,146.31,133.21Z"/><path class="cls-2" d="M234.82,277.29c1,5.52,6.18,9.13,6.66,14.87-6.68,1.3-8.68-1.64-8.08-8.06.5-5.35,0-10.79,0-16.18l.24-.08a1.22,1.22,0,0,1,1.79.67C235.33,271.45,235.93,274.42,234.82,277.29Z"/><path class="cls-2" d="M203.48,281.51c-3.56-.77-3.82-4-3.51-6.35.4-3.11,3.62-1.8,5.63-1.85,7-.17,13.93-.09,20.9-.11.43-.11,1-.45,1.29-.3,2.22,1.22.11,1.57-.5,1.59-6.29.12-12.59.34-18.87.08C202.78,274.33,200.65,276,203.48,281.51Z"/><path class="cls-2" d="M214.4,293.67l-1.3-1.2a21.81,21.81,0,0,0,10-5.24c2.83-2.66,1.24-4.07-.76-5.75,1.77,0,4-.53,4.66,1.65a5.08,5.08,0,0,1-1.77,5.47C221.9,290.87,218.91,294,214.4,293.67Z"/><path class="cls-2" d="M221.1,280.42c-2.53-1.35-4.28-.39-6.52,1.25-3.44,2.53-7.52,4.61-11.14-.17,4.53-.22,9.08.55,12.86-3.53C218.87,275.19,220.37,277.81,221.1,280.42Z"/><path class="cls-69" d="M96.37,77.55c-.93-3.51,1.28-4,3.91-4.07,1.62,1.55,2.11,3.63.62,5.13S97.81,78.33,96.37,77.55Z"/><path class="cls-108" d="M92.07,57.28c-1.34.93-2.68,1.48-4,.06-.35-1.41-.32-2.78,1.3-3.3s2.37.71,3,1.92A4.31,4.31,0,0,0,92.07,57.28Z"/><path class="cls-3" d="M94.85,80.41l-3.66-1.34c1.26-2.22,3.24-1.07,4.87-1.27Z"/><path class="cls-16" d="M234.76,267.83h-1.15c-.35-7.94,0-15.59,7.95-20.31l-5.37,23.18C234.85,270.18,236.31,268.26,234.76,267.83Z"/><path class="cls-12" d="M41.88,550.34l2.71,2.72c-.67,1.05-1.78,1.72-2.73,1C40.59,553,42.15,551.59,41.88,550.34Z"/><path class="cls-109" d="M229.3,113.43c-4.64.74-9.52,3.34-13.46-1.66.63-.94,1.46-.78,2.32-.41C221.46,114.3,225.6,112.67,229.3,113.43Z"/><path class="cls-110" d="M218.16,111.36l-2.32.41-3.59-1C214.26,110.63,216.45,108.63,218.16,111.36Z"/><path class="cls-111" d="M194,174.12l8.16-6.78c.21,2.19-.85,5,2.78,5.48-1.24,1.88-1.66,4.41-4.16,5.31-.94-4.33-4.48-2-6.85-2.68C194,175,194,174.56,194,174.12Z"/><path class="cls-112" d="M465.65,114.48c-2.65,2.8-3.44,7.51-8.27,8.08-2.45-4.77-1.21-10.68-4.58-15.13-1.86-2.46-2.75-6.68-7.45-4.74-6.11-1.32-7.6,3-9,7.39-1.49,1.21-2.31.19-3.09-.94l-.51-.16c1-6.09,5.14-10.15,9.58-13.7,2.86-2.28,6.53-2.81,9.84-.12a71.49,71.49,0,0,1,6.07,6.48c2.06,2.84,5,5.1,6,8.68C464.62,111.73,464,113.5,465.65,114.48Z"/><path class="cls-113" d="M457.38,102.21c-2.33-1.91-5.18-3.44-5.22-7,2.6-1.2,5.09-1.78,6.93,1.25,0,.29,0,.57.05.85a7,7,0,0,1,.21,3.4A2.52,2.52,0,0,1,457.38,102.21Z"/><path class="cls-114" d="M457.38,102.21l1.47-1.38c2.51.46,3.9,2.44,5.55,4.08.39.43.79.86,1.19,1.28.31,1.64-.62,2.86-1.4,4.13C461.1,108.31,459.14,105.34,457.38,102.21Z"/><path class="cls-113" d="M459.09,96.42a5.21,5.21,0,0,1,4.06,4.2l-.88.49a4,4,0,0,1-3.5-4.18Z"/><path class="cls-113" d="M465.59,106.19h-.66l-.65,0c-.72-1.69-3-2.93-1.5-5.26l.37-.29A5.44,5.44,0,0,1,465.59,106.19Z"/><path class="cls-115" d="M175,159.1l-5.36,3c-.6.65-1.17,1.35-2.19,1.28a2.24,2.24,0,0,1-1.86-1.86c0-1.92,1.53-2.47,2.78-3.32,1.7-.84,3.41-1.65,5.4-1.18C174.64,157.38,175.37,157.91,175,159.1Z"/><path class="cls-116" d="M168.64,159.19l-3.1,2.28q-2.06-1.28-4.09-2.57c-.21-2,1-3.11,2.59-4A12.71,12.71,0,0,1,168.64,159.19Z"/><path class="cls-117" d="M167.4,163.33l2.19-1.28c-.38,2.47,2.36,3.62,2.49,5.87C169.88,167.05,167.9,165.94,167.4,163.33Z"/><path class="cls-118" d="M168.64,159.19c-2.8-.07-4.53-1.29-4.6-4.29,0-.4.06-.8.1-1.19l-.08.1a20.39,20.39,0,0,0,1.47-1.47l-.1.1c.49-.48,1-.94,1.54-1.38,2.15-1.58,5.54-1.05,6.89-4,1,.05,1.94,1.88,2.88,0,1.91.22,4.44-.93,5,2.25,0,2-1.49,3.29-2.34,4.88-1.8,1.6-3.5,3.35-6.1,3.58Z"/><path class="cls-119" d="M167,151.06l-1.54,1.38A1.51,1.51,0,0,1,167,151.06Z"/><path class="cls-120" d="M165.53,152.34c-.12.85-.52,1.43-1.47,1.47Z"/><path class="cls-16" d="M202.09,256.94a3.71,3.71,0,0,1,3-2.42,9.49,9.49,0,0,0,6.5-.09c4.24,1,5.53,4.14,5.74,8-.14.41-.26.84-.36,1.26a1.27,1.27,0,0,1-1.58.28c-2.43-1.11-4.71-2.51-7.11-3.7C206.43,258.75,203.69,258.87,202.09,256.94Z"/><path class="cls-2" d="M215.71,263.76l1.22,0c-4.85,3.06-10.37,2-15.19,1s-.08-5.11-.79-7.76c.38,0,.76,0,1.14-.06,2.61.11,5.46-.42,6.91,2.69-.79.91-1.95,1-3.77,1.55C209,262.74,212.88,261.44,215.71,263.76Z"/><path class="cls-121" d="M211.55,254.43c-2.14,1.79-4.31,1.73-6.5.09Z"/><path class="cls-122" d="M173.31,157.73c1.89-1.38,3-3.93,5.77-4a1.6,1.6,0,0,1,1,1.17A12.44,12.44,0,0,1,175,159.1Z"/><path class="cls-123" d="M180.13,154.92l-1-1.17a6.7,6.7,0,0,1,2.67-4.48C184.62,152.14,181.13,153.17,180.13,154.92Z"/><path class="cls-2" d="M173.43,257l0,13.59c-.88,1.7-.45,3.53-.51,5.31-.21,6.34-2.13,7.59-8.46,5.47l-.51-4c.1-2.25.21-4.49.32-6.74.61,1.35,1.22,2.69,1.84,4,2.56-3.41,4.06-7.15,3.41-11.51C169.07,260,170.59,258.09,173.43,257Z"/><path class="cls-2" d="M174.69,278.81a9.67,9.67,0,0,0,5.76,3.8c5.09-.06,3.88,3.66,3.93,6.59.05,3.42-2.46,3-4.68,3-1.55,0-3.1,0-4.65,0-2.17-1.92-5.65-2-7-5.06C167.41,282.08,171.71,281,174.69,278.81Z"/><path class="cls-2" d="M174.69,278.81c-2.29,2.71-5.28,4.86-6.63,8.33a7.33,7.33,0,0,0-1.23-.29l-2.34-5.44q8.17,1.14,7.79-7.1c-.06-1.35,0-2.72,1.18-3.68C173.66,273.39,173.42,276.21,174.69,278.81Z"/><path class="cls-124" d="M78.37,77.3c-.4-.51-.76-1-1.18-1.52-1.25-1.37-2.32-2.84-1-4.64a2.84,2.84,0,0,1,2.2-1c2.5.42,2.93,2.3,2.68,4.48C80.56,75.87,80.28,77.41,78.37,77.3Z"/><path class="cls-125" d="M32.91,68l.9-3.65c2.13-.42,4.11-.36,4.35,2.41a3.94,3.94,0,0,1-2.23,3.74C33.7,71.57,34.13,68.64,32.91,68Z"/><path class="cls-126" d="M74.86,81.77l-3.14,2.94c-2.1-1.31-3.44-3.41-1.43-5.18S74.28,79,74.86,81.77Z"/><path class="cls-127" d="M85.33,81.81c-.92-.91-1.83-1.83-2.75-2.75q-.58-.5-.33-.93c.15-.27.3-.4.45-.4,1.41-1.28,3.18-2.34,4.74-.9s.29,3.22-.87,4.61C86.41,82.42,86,82.54,85.33,81.81Z"/><path class="cls-128" d="M57,57c-.2,1.61-1.06,2.56-2.59,2.33s-3.13-.42-3.07-2.63c.05-1.81,1.23-2.09,2.62-2.19C55.73,54.35,56.83,55.12,57,57Z"/><path class="cls-129" d="M59.2,69.85a2.54,2.54,0,0,1-2.57,2.5,2.22,2.22,0,0,1-2.37-2,2.44,2.44,0,0,1,2.13-2.92C57.92,67.23,58.83,68.31,59.2,69.85Z"/><path class="cls-130" d="M51.58,64.28A2.36,2.36,0,0,1,49.25,67a2.43,2.43,0,0,1-2.74-2.34,2.5,2.5,0,0,1,2.36-2.77C50.5,61.65,51.26,62.75,51.58,64.28Z"/><path class="cls-131" d="M25.52,63c-.24-3,1-4.51,4.12-4.24L31,60.05C31.05,64.6,29,65.09,25.52,63Z"/><path class="cls-132" d="M61,60.25c1.9,0,2.8.86,2.94,2.34a2.33,2.33,0,0,1-2.34,2.65,2.3,2.3,0,0,1-2.31-2C59,61.66,60,60.84,61,60.25Z"/><path class="cls-133" d="M72.92,67.84a2.52,2.52,0,0,1-2.37,2.61A2.37,2.37,0,0,1,68,68.09a2.27,2.27,0,0,1,2.3-2.57C71.83,65.39,72.57,66.43,72.92,67.84Z"/><path class="cls-134" d="M47.21,85.37a2.49,2.49,0,0,1-2.37,2.71,2.36,2.36,0,0,1-2.54-2.52,2.33,2.33,0,0,1,2-2.34C45.91,82.91,46.77,83.93,47.21,85.37Z"/><path class="cls-76" d="M63.23,48.66C63,50.25,62,50.74,60.47,50.89s-1.85-.83-2-2c-.15-1.51.56-2.6,2.13-2.66A2.45,2.45,0,0,1,63.23,48.66Z"/><path class="cls-135" d="M49.83,49.91C49.7,52,49.15,54,46.47,53.46c-2.24-.47-2.11-2.36-1.63-4.16C46.91,46.12,48.39,47.84,49.83,49.91Z"/><path class="cls-136" d="M45.88,72.42c-.36,1.5-1.19,2.58-2.78,2.22A2.44,2.44,0,0,1,41,71.72a2.32,2.32,0,0,1,2.42-1.93A2.56,2.56,0,0,1,45.88,72.42Z"/><path class="cls-3" d="M49.83,49.91c-1.54-1.24-3.17-1.67-5-.61l-3.27-1.63c.24-.85.47-1.69.7-2.54C45,46.42,49.08,45.51,49.83,49.91Z"/><path class="cls-137" d="M69,51.49c1.18,1.42,2.1,2.95.17,4.39a2.81,2.81,0,0,1-2.37.23c-2.24-1-1.61-2.67-.76-4.31A2.57,2.57,0,0,1,69,51.49Z"/><path class="cls-3" d="M65,87.05c-2.12,1.47-1.71,3.51-1.28,5.57-2.24-1.8-1.11-5-2.86-7a1.67,1.67,0,0,1,.26-2.55C63.61,83.2,63.94,85.47,65,87.05Z"/><path class="cls-138" d="M37.19,83c-1-.56-2.95-.72-2.82-2.06.1-.92,1.72-2.19,2.83-2.41a2.24,2.24,0,1,1,0,4.47Z"/><path class="cls-138" d="M50.86,80.57c-1.61-.26-2.41-1.17-2.2-2.76a2.2,2.2,0,0,1,2.2-2,2.26,2.26,0,0,1,2.55,2.42A2.29,2.29,0,0,1,50.86,80.57Z"/><path class="cls-139" d="M62.37,77.43c-.28-2.27.06-4.44,3-3.56,1.63.49,4.09,2,.94,4.19C64.91,78.27,63.46,79,62.37,77.43Z"/><path class="cls-3" d="M82.7,77.73a2.51,2.51,0,0,1-.12,1.33,2.8,2.8,0,0,0-1.32,2.69c-1.49,0-3.09.26-4.07-1.34,2.92-.08,1.65-1.74,1.18-3.11l2.73-2.71C81.26,75.83,81.43,77.06,82.7,77.73Z"/><path class="cls-140" d="M54.93,92.13c-.44,1.5-1.46,2.34-3,2a2.07,2.07,0,0,1-1.72-2.49,2.27,2.27,0,0,1,2.94-2A2.18,2.18,0,0,1,54.93,92.13Z"/><path class="cls-138" d="M73.19,43.59c2.46,0,3.09,1.22,3.08,2.23A2.1,2.1,0,0,1,74.18,48a2.07,2.07,0,0,1-2.33-2.53A2.18,2.18,0,0,1,73.19,43.59Z"/><path class="cls-141" d="M74.49,57.37c3.33-.74,4.34.77,3.72,3.85C74.35,62.47,73,61.25,74.49,57.37Z"/><path class="cls-84" d="M65.24,38.4c1.68-.07,3.89-.76,3.72,2.1s-2.16,2.14-3.91,1.72C63.82,40.88,63.83,39.61,65.24,38.4Z"/><path class="cls-142" d="M61.07,83.1l-.26,2.55c-1.49.39-3.14,1-4-.87a2.53,2.53,0,0,1,.37-2.35A2.42,2.42,0,0,1,61.07,83.1Z"/><path class="cls-3" d="M42.83,37.05A5.41,5.41,0,0,0,44.68,41c-1.4.75-3.3,1.28-4-.11C39.84,39.29,42.14,38.39,42.83,37.05Z"/><path class="cls-3" d="M65.24,38.4c-.07,1.27-.13,2.55-.19,3.82-1.22,1.44-2,.41-2.3-.64C62.18,39.58,63.74,39,65.24,38.4Z"/><path class="cls-3" d="M85.33,81.81c.41-.14.82-.27,1.24-.37a11.5,11.5,0,0,1-1.93,6C83.23,85.22,84.62,83.56,85.33,81.81Z"/><path class="cls-3" d="M34,89.87c-.15-.87-.29-1.74-.44-2.6,1.22-.16,1.85-2.89,2.84-1.58C38.23,88,35.13,88.58,34,89.87Z"/><path class="cls-3" d="M41.69,93c-1.67-1.39-3.38-1.79-5.19-.26.09-1.75.85-2.8,2.76-2.73S41.78,91.28,41.69,93Z"/><path class="cls-3" d="M69,51.49l-3,.31c-1-1.42.22-1.94,1.15-2.17C68.56,49.28,68.84,50.4,69,51.49Z"/><path class="cls-3" d="M62.37,77.43l3.9.63c-1.3,1-2.48,2.34-4.33,1.61A11.85,11.85,0,0,1,62.37,77.43Z"/><path class="cls-143" d="M282.29,54.61l1.36,4.06C280.75,58.13,280.08,56.85,282.29,54.61Z"/><path class="cls-144" d="M445.5,102c1.1-4.69,3.38-2.3,5-.61a24.86,24.86,0,0,1,6.9,21.14c-1,1.48-2.47,1.37-3.94,1.35-.15-.26-.3-.53-.46-.79,0-.31,0-.61,0-.91a10,10,0,0,1,.65-1.67,7.23,7.23,0,0,0,.1-6.59c-.47-.75-1-1.46-1.51-2.18C450.68,108.06,447.84,105.22,445.5,102Z"/><path class="cls-145" d="M433.25,109.14l2.52,1.13c3.29,5,5.94,10.75,12.88,11.78,1.39.59,3.32.53,3.39,2.75C441.51,125.92,436.27,121.55,433.25,109.14Z"/><path class="cls-112" d="M452,124.8c-1.11-1.17-2.59-.92-4-1,1.06-3.39,3.13-2.59,5.32-1.27l.06,1.43Z"/><path class="cls-57" d="M185.76,252.76c-2.85,5.71-8.06,1.54-12,2.84C177.3,252.61,182.34,256.07,185.76,252.76Z"/><path class="cls-146" d="M453.38,122.48c-1.82.23-3.88-.56-5.32,1.27-6.7-2.12-11.76-5.73-12.28-13.48.67-9.74,1.75-10.66,9.72-8.24,5.17,1.09,6.2,5.63,8,9.55a11.36,11.36,0,0,1-.07,10.88Z"/><path class="cls-112" d="M462.78,100.91l1.5,5.26a14.17,14.17,0,0,1-5.43-5.35c-.12-1.29-2.28-2.55-.08-3.89Z"/><path class="cls-147" d="M215.71,263.76h-9.4c-2.16,0-4.4-.22-3.94-3.12.52-3.31,2.77-1.89,4.64-1.32a12.9,12.9,0,0,0,2,.31C211.71,260.23,214.36,261,215.71,263.76Z"/><path class="cls-112" d="M453.41,122.46c0-3.63,0-7.25.07-10.88l1.38,1.48a11.67,11.67,0,0,1,0,8Z"/><path class="cls-148" d="M454.84,121.11c0-2.68,0-5.36,0-8A6.15,6.15,0,0,1,454.84,121.11Z"/><path class="cls-2" d="M162,239.37a187.41,187.41,0,0,0-16.82,21.85c-2.4,3.66-5.49,7.65-6.16,12.08-.34,2.25-.13,4.57-.65,6.79a26.45,26.45,0,0,1-2.5,6.17c-2.19,4.17-4.83,8.09-7.39,12.05s-5.42,7.83-7.55,12c-2.24,4.39-2.74,9.22-3.15,14.06a125.37,125.37,0,0,0-.36,14.76,17,17,0,0,0,1.61,7.63,13.67,13.67,0,0,0,4.64,4.83c4.37,2.83,9.73,2.89,14.71,2.17a2.52,2.52,0,0,0,1.74-3.08,2.55,2.55,0,0,0-3.07-1.74c-3.67.53-7.66.39-10.86-1.67a8.18,8.18,0,0,1-3-3.36c-.83-1.76-.75-3.86-.8-5.76a126.69,126.69,0,0,1,.39-13.78c.37-4.35.82-8.64,3-12.51,4.32-7.72,9.89-14.7,14.1-22.49a28.15,28.15,0,0,0,3.88-12.48,13,13,0,0,1,1.16-5.67,60.26,60.26,0,0,1,3.24-5.4,178.72,178.72,0,0,1,17.39-22.94c2.14-2.4-1.38-5.94-3.53-3.54Z"/><path class="cls-2" d="M162.36,242.25a37.77,37.77,0,0,0,6,4.91,20.88,20.88,0,0,0,6.83,2.5,57.79,57.79,0,0,1,6.52,1.42c2.22.73,3.5,2.3,5.34,3.63,2,1.46,4.51,1.77,6.93,1.93,2,.14,4.09.12,5.77,1.39,1,.75,1.88,1.64,2.92,2.35a19.47,19.47,0,0,0,3.74,1.86c2.49,1,5,1.85,7.62,2.64a155,155,0,0,0,16,3.8,9.73,9.73,0,0,1,2.38.7c.61.31.76.42.75.92a10.83,10.83,0,0,1-.49,1.9,13,13,0,0,0-.29,2.24,15.89,15.89,0,0,0,.5,4.29c1.26,5.36,3.75,10.59,6.07,15.55s4.9,9.92,7.37,14.86c5.22,10.41,10.74,22.14,9.05,34.12a2.58,2.58,0,0,0,1.74,3.08,2.53,2.53,0,0,0,3.08-1.75c1.61-11.44-2.12-22.36-6.92-32.59-4.72-10.06-10.36-19.7-14.17-30.17-.9-2.48-2-5.27-1.68-8a26.76,26.76,0,0,0,.75-3.75,5.46,5.46,0,0,0-1.42-3.65c-1.49-1.64-3.75-2.31-5.86-2.69-2.78-.51-5.56-1-8.31-1.72s-5.47-1.43-8.16-2.28a55.71,55.71,0,0,1-7.46-2.69c-2.29-1.11-3.89-3.19-6.2-4.23s-4.75-1.06-7.2-1.24a8.67,8.67,0,0,1-3.22-.71,22.87,22.87,0,0,1-3-2.47,17.88,17.88,0,0,0-7.42-3c-2.47-.49-5.12-.75-7.45-1.77-2.55-1.13-4.6-3.11-6.61-5-2.34-2.2-5.88,1.33-3.53,3.54Z"/><path class="cls-16" d="M167.34,235.71a18.52,18.52,0,0,0,8.32,7,31.77,31.77,0,0,1,3.12,1.33c.61.33,1.18.73,1.8,1a15,15,0,0,0,3.69,1.05c14.06,2.84,27.17,10.86,41.51,10.61"/><path class="cls-16" d="M244,230a10,10,0,0,1-1.1,6.6,19.71,19.71,0,0,0-1.26,2.29,10.57,10.57,0,0,0-.48,2.85c-.64,8-2.77,15.72-4.89,23.42"/><path class="cls-24" d="M182.35,245.71c2.64-1.2,5.31,1.34,7.64,3.06,3.44,2.54,7.73,3.53,11.88,4.54a339.61,339.61,0,0,1,33.91,10.16"/><path class="cls-24" d="M215.23,254.5c1,1,2.63.71,3.77,1.46a5,5,0,0,1,1.32,1.49,17.21,17.21,0,0,0,4.57,5c2.22,1.45,4.9,1.93,7.5,2.38l3.51.61"/><path class="cls-149" d="M198.81,112l-23.24,30.69s-2.59,3.71,2.67,4.19,7.41,1.57,9.21,3.73-14,22.32-11.88,20.88,16-8.92,13.2-6.26-9.24,12.38-14.28,12.38-9.14.59-10.15-1.87S166.21,192,177,186.61s50.92-39.92,50.92-39.92-28.6,36-36.52,39.92-15.12,11.16-15.84,8.64-15.84,40.32-13.68,42.48S232.45,282,236.41,268s11.16-47.16,22-58.32,18.36-16.2,22-30.24,0-19.8,14.76-21.6c0,0,32.76,19.44,51.12,15.84s36.13-15.54,36.13-15.54-5.89-19.74-5.17-22.62-21.24,7.92-32.4,6.48-69.48-42.48-69.48-42.48-3.6,4.32-11.88,4.68-8.28-1.08-8.28-1.08-28.9,13.72-35.28,10.44C206.53,106.69,198.64,113,198.81,112Z"/></g></g></svg>