<svg xmlns="http://www.w3.org/2000/svg" viewBox="0 0 141.24 141.21"><defs><style>.cls-1{fill:#9b51e0;}</style></defs><g id="Capa_2" data-name="Capa 2"><g id="Capa_1-2" data-name="Capa 1"><path class="cls-1" d="M73.48,141.18a73.66,73.66,0,0,1-23.42-3A70.24,70.24,0,0,1,9.16,105.4a71.63,71.63,0,0,1-8-21.91A70.78,70.78,0,0,1,.23,64.78,68.65,68.65,0,0,1,8.76,36.45,70.89,70.89,0,0,1,25,16.74,68.77,68.77,0,0,1,49.19,3.3,69.83,69.83,0,0,1,64,.34,71.25,71.25,0,0,1,75.8.17a65.8,65.8,0,0,1,24,6.16q31.8,15.24,39.85,49.61a56.64,56.64,0,0,1,1.53,15.77c-1.56,29.77-15.81,51.1-42.87,63.77-1.38.64-2.82,1.14-4.23,1.71-.9-.57-.78-1.49-.79-2.34,0-3.94,0-7.88,0-11.81V98c0-.76,0-1.53,0-2.3,0-1.26.6-1.82,1.87-1.89,4.23-.2,8.47-.4,12.71-.29,2.16,0,2.61-.26,2.93-2.4.64-4.29,1.15-8.61,1.73-12.91.29-2.2-.25-2.81-2.46-2.83-4.6,0-9.2,0-13.8,0-2.68,0-3-.32-3-3,0-3.68,0-7.36,0-11A12.36,12.36,0,0,1,94.11,57c1.16-3.16,4.12-5.07,8-5.16,2.91-.07,5.82,0,8.74,0,2.43,0,3-.57,3-3,0-3.58,0-7.16,0-10.73,0-2.53-.34-3-2.84-3.18-5.9-.31-11.79-1-17.71,0A21.69,21.69,0,0,0,75.1,52.67a53.22,53.22,0,0,0-.84,9c-.06,3.53,0,7,0,10.58,0,3-.14,3.15-3.23,3.17-3.48,0-7,0-10.43,0-2.8,0-3.55.85-3.34,3.62.29,3.72.08,7.46.13,11.19,0,2.82.48,3.28,3.32,3.29,3.12,0,6.24-.12,9.35,0,4.93.25,4.18.62,4.19,4.13,0,13.44,0,26.89,0,40.33C74.24,139.12,74.42,140.29,73.48,141.18Z"/></g></g></svg>