<svg xmlns="http://www.w3.org/2000/svg" viewBox="0 0 141.39 115.2"><defs><style>.cls-1{fill:#9b51e0;}</style></defs><g id="Capa_2" data-name="Capa 2"><g id="Capa_1-2" data-name="Capa 1"><path class="cls-1" d="M0,102.25c15.85,1.53,30-2.44,42.62-12.08A29.43,29.43,0,0,1,26,84.35,28.81,28.81,0,0,1,15.69,70.14c2.18.09,4.32.23,6.47.25a21.92,21.92,0,0,0,6.34-1A29.46,29.46,0,0,1,11.85,59.11,28.81,28.81,0,0,1,5.41,40.55a28.31,28.31,0,0,0,12.93,3.52A29.18,29.18,0,0,1,6.39,26.41a28.8,28.8,0,0,1,3.14-21c15.75,18.55,35.66,28.72,60,30.4-.16-1-.32-1.88-.43-2.73a28.59,28.59,0,0,1,7-23.24A27.72,27.72,0,0,1,93.44.34a28.45,28.45,0,0,1,24.94,8.1,1.78,1.78,0,0,0,1.91.51,59.38,59.38,0,0,0,16.89-6.58l.38-.19a28.6,28.6,0,0,1-4.84,9.05,31.42,31.42,0,0,1-7.6,6.85,55,55,0,0,0,16.27-4.38c-.11.21-.16.34-.23.45a58.87,58.87,0,0,1-13.65,14.12,1.1,1.1,0,0,0-.51,1.08,70.94,70.94,0,0,1-.67,13.89,86.11,86.11,0,0,1-13,34.9A80.3,80.3,0,0,1,90.6,101.6,78.08,78.08,0,0,1,64,113.06a86.26,86.26,0,0,1-15,2,85.61,85.61,0,0,1-15.27-.54A82.36,82.36,0,0,1,.2,102.46,1.4,1.4,0,0,1,0,102.25Z"/></g></g></svg>