<svg xmlns="http://www.w3.org/2000/svg" viewBox="0 0 128.38 128.34"><defs><style>.cls-1{fill:#9b51e0;}</style></defs><g id="Capa_2" data-name="Capa 2"><g id="Capa_1-2" data-name="Capa 1"><path class="cls-1" d="M64.21.05C69.62.05,75,0,80.43.06c4.11,0,8.22.15,12.32.45a43.31,43.31,0,0,1,16.22,4A32.3,32.3,0,0,1,122.52,17a37.14,37.14,0,0,1,4.73,13.32,73.86,73.86,0,0,1,.83,9.17c.47,11.17.24,22.36.29,33.53,0,5.78-.08,11.56-.35,17.33A50.31,50.31,0,0,1,125.78,104c-3.76,11.25-11.37,18.57-22.7,22a47,47,0,0,1-10.47,1.78c-7.25.49-14.51.51-21.78.51-8.08,0-16.16,0-24.25,0-3.92,0-7.84-.17-11.75-.48q-2.79-.22-5.55-.72A44.05,44.05,0,0,1,21,124.55a31,31,0,0,1-5.85-3.25,22.06,22.06,0,0,1-3.63-2.91,37.7,37.7,0,0,1-6.09-7.79A38.6,38.6,0,0,1,1.46,99.79a58.46,58.46,0,0,1-1.11-9.7C-.16,79.24.05,68.37,0,57.51c0-5.19,0-10.39.18-15.58A97,97,0,0,1,1,31.16,37.77,37.77,0,0,1,5.54,17.54,32.4,32.4,0,0,1,23,3,43.54,43.54,0,0,1,34.26.63C41.32.06,48.39,0,55.47,0h8.74Zm52.53,64.12c0-8.5.19-17-.29-25.51a36.13,36.13,0,0,0-.91-7.53c-.28-1-.47-2.12-.77-3.15a18,18,0,0,0-3.84-7.3,41.43,41.43,0,0,0-3.22-3.27,16.25,16.25,0,0,0-4.82-2.85c-1.61-.63-3.26-1.14-4.9-1.63a25.75,25.75,0,0,0-5.25-.82c-3.39-.28-6.78-.42-10.17-.44-13.73-.09-27.45-.27-41.18.11a60.21,60.21,0,0,0-10.28,1A22.79,22.79,0,0,0,18,20a21.93,21.93,0,0,0-4,6.74,35.52,35.52,0,0,0-2,10.08c-.2,2.8-.28,5.61-.32,8.42-.15,8.95-.11,17.91-.1,26.86,0,6.89,0,13.78.55,20.66a32.7,32.7,0,0,0,1.75,8.52,20.93,20.93,0,0,0,10.5,12,27.85,27.85,0,0,0,8.87,2.63,77,77,0,0,0,8.16.6q5.72.24,11.45.21c12.35-.06,24.7.26,37-.31a44.42,44.42,0,0,0,9.33-1.28,24.6,24.6,0,0,0,7-3.06,21.41,21.41,0,0,0,4.38-3.9,17.83,17.83,0,0,0,3.52-6c.33-.93.74-1.83,1-2.77a32.51,32.51,0,0,0,1.14-6.57c.3-3.67.44-7.35.47-11C116.78,75.88,116.74,70,116.74,64.17Z"/><path class="cls-1" d="M97.17,64.16A33,33,0,1,1,64.22,31.22,33,33,0,0,1,97.17,64.16Zm-33,21.4A21.39,21.39,0,1,0,42.79,64.12,21.51,21.51,0,0,0,64.2,85.56Z"/><path class="cls-1" d="M106.15,30a7.7,7.7,0,1,1-7.58-7.77A7.68,7.68,0,0,1,106.15,30Z"/></g></g></svg>